<svg xmlns="http://www.w3.org/2000/svg" width="55" height="55" viewBox="0 0 55 55"><defs><style>.a{fill:#fff;}.b{fill:#0c6397;}</style></defs><ellipse class="a" cx="26.976" cy="26.95" rx="26.976" ry="26.95" transform="translate(0.524 0.6)"/><path class="b" d="M55.562,28.063a27.5,27.5,0,1,1-27.5-27.5A27.5,27.5,0,0,1,55.562,28.063ZM24.882,42.624l20.4-20.4a1.774,1.774,0,0,0,0-2.509L42.776,17.2a1.774,1.774,0,0,0-2.509,0L23.627,33.842l-7.769-7.769a1.774,1.774,0,0,0-2.509,0L10.84,28.582a1.774,1.774,0,0,0,0,2.509L22.372,42.623a1.774,1.774,0,0,0,2.509,0Z" transform="translate(-0.562 -0.563)"/></svg>