<svg xmlns="http://www.w3.org/2000/svg" width="88" height="88" viewBox="0 0 88 88"><circle cx="44" cy="44" r="44" fill="#9f183b"/><path d="M23.769,25.1c7.5,0,13.582-5.618,13.582-12.55S31.271,0,23.769,0,10.187,5.618,10.187,12.55,16.267,25.1,23.769,25.1ZM11.035,41.571a2.45,2.45,0,0,0,2.547,2.353,2.36,2.36,0,1,0,0-4.706A2.45,2.45,0,0,0,11.035,41.571ZM33.955,28.3v4.8a8.038,8.038,0,0,1,6.791,7.687v4.088a1.611,1.611,0,0,1-1.369,1.539l-3.417.627a.844.844,0,0,1-1-.618l-.329-1.539a.781.781,0,0,1,.668-.922l2.048-.382V40.786c0-6.157-10.187-6.383-10.187.186V43.59l2.048.382a.8.8,0,0,1,.668.922l-.329,1.539a.861.861,0,0,1-1,.618l-3.311-.412a1.613,1.613,0,0,1-1.464-1.559V40.786A8.046,8.046,0,0,1,30.57,33.1V28.668c-.233.069-.467.108-.7.186a19.785,19.785,0,0,1-12.181,0,12.548,12.548,0,0,0-2.4-.51v8a5.55,5.55,0,0,1,4.244,5.236,5.733,5.733,0,0,1-5.942,5.49,5.733,5.733,0,0,1-5.942-5.49,5.55,5.55,0,0,1,4.244-5.236V28.462C5.146,29.511,0,34.884,0,41.414v4.392A4.589,4.589,0,0,0,4.754,50.2h38.03a4.589,4.589,0,0,0,4.754-4.392V41.414C47.537,34.355,41.51,28.639,33.955,28.3Z" transform="translate(20.649 18.952)" fill="#fff"/></svg>