<svg width="124" height="124" viewBox="0 0 124 124" fill="none" xmlns="http://www.w3.org/2000/svg">
<path d="M62 124C96.2417 124 124 96.2417 124 62C124 27.7583 96.2417 0 62 0C27.7583 0 0 27.7583 0 62C0 96.2417 27.7583 124 62 124Z" fill="#0071BB"/>
<path d="M74.8638 60.3979V35.466L62.3979 23L49.9319 35.466V43.7766H25V101.951H99.7957V60.3979H74.8638ZM41.6213 93.6404H33.3106V85.3298H41.6213V93.6404ZM41.6213 77.0191H33.3106V68.7085H41.6213V77.0191ZM41.6213 60.3979H33.3106V52.0872H41.6213V60.3979ZM66.5532 93.6404H58.2425V85.3298H66.5532V93.6404ZM66.5532 77.0191H58.2425V68.7085H66.5532V77.0191ZM66.5532 60.3979H58.2425V52.0872H66.5532V60.3979ZM66.5532 43.7766H58.2425V35.466H66.5532V43.7766ZM91.4851 93.6404H83.1745V85.3298H91.4851V93.6404ZM91.4851 77.0191H83.1745V68.7085H91.4851V77.0191Z" fill="white"/>
</svg>
