<svg xmlns="http://www.w3.org/2000/svg" xmlns:xlink="http://www.w3.org/1999/xlink" width="121.454" height="121.454" viewBox="0 0 121.454 121.454"><defs><filter id="a" x="0" y="0" width="121.454" height="121.454" filterUnits="userSpaceOnUse"><feOffset dy="3" input="SourceAlpha"/><feGaussianBlur stdDeviation="10" result="b"/><feFlood flood-opacity="0.161"/><feComposite operator="in" in2="b"/><feComposite in="SourceGraphic"/></filter></defs><g transform="translate(-351.022 -107.563)"><g transform="matrix(1, 0, 0, 1, 351.02, 107.56)" filter="url(#a)"><path d="M31.29.563A30.727,30.727,0,1,0,62.017,31.29,30.722,30.722,0,0,0,31.29.563Z" transform="translate(29.44 26.44)" fill="#fff"/></g><path d="M35.009,9.991l-3.241,3.241a.845.845,0,0,1-1.2,0l-7.8-7.8a.845.845,0,0,1,0-1.2L26.009.991a3.382,3.382,0,0,1,4.774,0l4.226,4.226A3.37,3.37,0,0,1,35.009,9.991ZM19.983,7.017,1.519,25.481.028,34.024a1.69,1.69,0,0,0,1.955,1.955l8.543-1.5L28.99,16.017a.845.845,0,0,0,0-1.2l-7.8-7.8a.853.853,0,0,0-1.2,0ZM8.726,23.9a.98.98,0,0,1,0-1.392L19.554,11.679a.984.984,0,0,1,1.392,1.392L10.118,23.9a.98.98,0,0,1-1.392,0ZM6.188,29.813H9.563v2.552l-4.535.795L2.841,30.973l.795-4.535H6.188Z" transform="translate(393.762 147.285)" fill="#686868"/></g></svg>