<svg width="124" height="124" viewBox="0 0 124 124" fill="none" xmlns="http://www.w3.org/2000/svg">
<path d="M62 124C96.2417 124 124 96.2417 124 62C124 27.7583 96.2417 0 62 0C27.7583 0 0 27.7583 0 62C0 96.2417 27.7583 124 62 124Z" fill="#E12454"/>
<path d="M61.75 32C53.5949 32 46.9844 38.6105 46.9844 46.7656C46.9844 53.3586 56.6348 65.375 60.332 69.7367C61.0809 70.6203 62.4203 70.6203 63.168 69.7367C66.8652 65.375 76.5156 53.3586 76.5156 46.7656C76.5156 38.6105 69.9051 32 61.75 32ZM61.75 51.6875C59.0312 51.6875 56.8281 49.4844 56.8281 46.7656C56.8281 44.0469 59.0312 41.8438 61.75 41.8438C64.4688 41.8438 66.6719 44.0469 66.6719 46.7656C66.6719 49.4844 64.4688 51.6875 61.75 51.6875ZM30.3578 57.3066C28.9341 57.8761 28.0003 59.2549 28 60.7883V90.1227C28 91.4492 29.3395 92.3562 30.5711 91.8641L46.75 84.5V57.1859C45.7141 55.3133 44.8668 53.4898 44.2598 51.7461L30.3578 57.3066ZM61.75 74.1488C60.1012 74.1488 58.5414 73.4246 57.4715 72.1613C55.1676 69.4426 52.7172 66.3465 50.5 63.1707V84.4988L73 91.9988V63.1719C70.7828 66.3465 68.3336 69.4437 66.0285 72.1625C64.9586 73.4246 63.3988 74.1488 61.75 74.1488ZM92.9289 50.8859L76.75 58.25V92L93.1422 85.4434C94.5661 84.8742 95.5 83.4952 95.5 81.9617V52.6273C95.5 51.3008 94.1605 50.3937 92.9289 50.8859Z" fill="white"/>
</svg>
