<svg xmlns="http://www.w3.org/2000/svg" width="35.358" height="31.859" viewBox="0 0 35.358 31.859"><g transform="translate(0)"><path d="M16.62,4.929a3.7,3.7,0,0,1,6.427,0L37.023,29.417a3.685,3.685,0,0,1-3.213,5.508H5.857a3.685,3.685,0,0,1-3.213-5.508Z" transform="translate(-2.154 -3.066)" fill="#959595"/><path d="M14.517,18.607A2.978,2.978,0,1,0,17.5,21.586,2.978,2.978,0,0,0,14.517,18.607ZM11.689,7.9l.48,8.805a.777.777,0,0,0,.776.735h3.143a.777.777,0,0,0,.776-.735l.48-8.805a.777.777,0,0,0-.776-.819h-4.1A.777.777,0,0,0,11.689,7.9Z" transform="translate(3.162 2.786)" fill="#fff"/></g></svg>