<svg xmlns="http://www.w3.org/2000/svg" width="41.522" height="41.522" viewBox="0 0 41.522 41.522"><g transform="translate(-13.918 -8.873)"><path d="M42.522,22.761A19.761,19.761,0,1,1,22.761,3,19.761,19.761,0,0,1,42.522,22.761Z" transform="translate(11.918 6.873)" fill="none" stroke="#0c6397" stroke-linecap="round" stroke-linejoin="round" stroke-width="2"/><g transform="translate(20 13.009)"><path d="M20.625,24.7a.917.917,0,0,0-.915.915A1.18,1.18,0,0,1,18.534,26.8H6.381A1.18,1.18,0,0,1,5.2,25.619V8.631A1.18,1.18,0,0,1,6.381,7.455H18.534A1.18,1.18,0,0,1,19.71,8.631a.915.915,0,1,0,1.83,0,3.006,3.006,0,0,0-3.006-3.006H6.381A3.006,3.006,0,0,0,3.375,8.631V25.619a3.006,3.006,0,0,0,3.006,3.006H18.534a3.006,3.006,0,0,0,3.006-3.006A.917.917,0,0,0,20.625,24.7Z" transform="translate(0)" fill="#0c6397"/><path d="M25.1,11.1a.909.909,0,0,0-.647-.268.894.894,0,0,0-.647.268.911.911,0,0,0,0,1.294l4.26,4.195H11.321a.915.915,0,1,0,0,1.83H28.087L23.932,22.6a.923.923,0,0,0,0,1.294l.007.007a.945.945,0,0,0,.64.255.883.883,0,0,0,.647-.268l5.4-5.384a1.284,1.284,0,0,0,0-1.908Z" transform="translate(-0.497 -0.368)" fill="#0c6397"/></g></g></svg>