<svg xmlns="http://www.w3.org/2000/svg" width="41.522" height="41.522" viewBox="0 0 41.522 41.522"><g transform="translate(-13.918 -8.873)"><path d="M42.522,22.761A19.761,19.761,0,1,1,22.761,3,19.761,19.761,0,0,1,42.522,22.761Z" transform="translate(11.918 6.873)" fill="none" stroke="#0c6397" stroke-linecap="round" stroke-linejoin="round" stroke-width="2"/><path d="M28.026,16.451a5.385,5.385,0,0,0,0-1.956l1.184-.684a.332.332,0,0,0,.151-.39,6.889,6.889,0,0,0-1.524-2.635.335.335,0,0,0-.413-.064l-1.184.684a5.39,5.39,0,0,0-1.694-.978V9.06a.334.334,0,0,0-.262-.326,6.926,6.926,0,0,0-3.039,0,.334.334,0,0,0-.262.326v1.368a5.39,5.39,0,0,0-1.694.978l-1.184-.684a.336.336,0,0,0-.413.064,6.889,6.889,0,0,0-1.524,2.635.338.338,0,0,0,.151.39L17.5,14.5a5.385,5.385,0,0,0,0,1.956l-1.184.684a.332.332,0,0,0-.151.39,6.924,6.924,0,0,0,1.524,2.635.335.335,0,0,0,.413.064l1.184-.684a5.39,5.39,0,0,0,1.694.978v1.368a.334.334,0,0,0,.262.326,6.926,6.926,0,0,0,3.039,0,.334.334,0,0,0,.262-.326V20.519a5.39,5.39,0,0,0,1.694-.978l1.184.684a.336.336,0,0,0,.413-.064,6.889,6.889,0,0,0,1.524-2.635.338.338,0,0,0-.151-.39l-1.184-.684ZM22.77,17.7A2.226,2.226,0,1,1,25,15.474,2.229,2.229,0,0,1,22.77,17.7ZM4.407,11.067A2.938,2.938,0,1,0,1.469,8.129,2.941,2.941,0,0,0,4.407,11.067ZM14.69,12.536c.087,0,.17-.023.257-.028A8.463,8.463,0,0,1,16.614,9.79a1.809,1.809,0,0,1,1.327-.578,1.765,1.765,0,0,1,.9.243l.363.211c.037-.023.073-.041.11-.064a5.081,5.081,0,0,0,.514-2.2,5.139,5.139,0,1,0-5.137,5.137Zm4.829,8.929c-.106-.055-.211-.119-.312-.179a2.268,2.268,0,0,1-1.262.45,1.825,1.825,0,0,1-1.327-.578,8.371,8.371,0,0,1-1.845-3.2,1.959,1.959,0,0,1,1.184-2.309q-.007-.179,0-.358l-.363-.211a1.87,1.87,0,0,1-.45-.372c-.151.009-.3.028-.45.028A7.247,7.247,0,0,1,11.55,14h-.381a5.291,5.291,0,0,0-5.293,5.288v1.322a2.2,2.2,0,0,0,2.2,2.2H19.8a1.768,1.768,0,0,1-.285-.932ZM7.946,13.389a2.929,2.929,0,0,0-2.07-.854H2.938A2.941,2.941,0,0,0,0,15.474v1.469a1.467,1.467,0,0,0,1.469,1.469H4.494a6.732,6.732,0,0,1,3.452-5.022Z" transform="translate(20.24 17.097)" fill="#0c6397"/></g></svg>