<svg xmlns="http://www.w3.org/2000/svg" width="41.451" height="41.451" viewBox="0 0 41.451 41.451"><g transform="translate(-2 -2)"><path d="M42.451,22.726A19.726,19.726,0,1,1,22.726,3,19.726,19.726,0,0,1,42.451,22.726Z" transform="translate(0 0)" fill="none" stroke="#0c6397" stroke-linecap="round" stroke-linejoin="round" stroke-width="2"/><path d="M23.36,3.858H18.433a3.522,3.522,0,0,0-6.648,0H6.858A2.364,2.364,0,0,0,4.5,6.215v16.5a2.364,2.364,0,0,0,2.358,2.358h16.5a2.364,2.364,0,0,0,2.358-2.358V6.215A2.364,2.364,0,0,0,23.36,3.858Zm-8.251,0A1.179,1.179,0,1,1,13.93,5.036,1.182,1.182,0,0,1,15.109,3.858Zm0,4.715a3.536,3.536,0,1,1-3.536,3.536A3.532,3.532,0,0,1,15.109,8.573Zm7.073,14.145H8.036v-1.65c0-2.358,4.715-3.654,7.073-3.654s7.073,1.3,7.073,3.654Z" transform="translate(7.617 9.438)" fill="#0c6397"/></g></svg>