<svg xmlns="http://www.w3.org/2000/svg" width="42.692" height="29.884" viewBox="0 0 42.692 29.884"><path d="M35.861,15.231a6.411,6.411,0,0,0-5.977-8.712A6.371,6.371,0,0,0,26.329,7.6,10.674,10.674,0,0,0,6.4,12.923c0,.18.007.36.013.54A9.608,9.608,0,0,0,9.606,32.134H34.153a8.538,8.538,0,0,0,1.708-16.9ZM27,21.148l-7.031,7.031a1.071,1.071,0,0,1-1.508,0l-7.031-7.031a1.067,1.067,0,0,1,.754-1.821h4.363V11.856a1.07,1.07,0,0,1,1.067-1.067h3.2a1.07,1.07,0,0,1,1.067,1.067v7.471h4.363A1.067,1.067,0,0,1,27,21.148Z" transform="translate(0 -2.25)" fill="#959595"/></svg>