<svg xmlns="http://www.w3.org/2000/svg" width="88" height="88" viewBox="0 0 88 88"><g transform="translate(0 0.071)"><circle cx="44" cy="44" r="44" transform="translate(0 -0.071)" fill="#7bdcb5"/><g transform="translate(11.233 19.572)"><path d="M55.048,22.176A9.842,9.842,0,0,0,45.873,8.8a9.78,9.78,0,0,0-5.458,1.659A16.385,16.385,0,0,0,9.83,18.633c0,.276.01.553.02.829a14.749,14.749,0,0,0,4.895,28.661H52.427a13.106,13.106,0,0,0,2.621-25.947ZM41.44,31.259,30.647,42.051a1.644,1.644,0,0,1-2.314,0L17.54,31.259a1.638,1.638,0,0,1,1.157-2.8h6.7V17a1.643,1.643,0,0,1,1.638-1.638h4.915A1.643,1.643,0,0,1,33.586,17V28.463h6.7a1.638,1.638,0,0,1,1.157,2.8Z" transform="translate(0 -2.25)" fill="#fff"/></g></g></svg>