<svg xmlns="http://www.w3.org/2000/svg" width="35.532" height="35.532" viewBox="0 0 35.532 35.532"><path d="M15.406,0a15.406,15.406,0,1,0,0,30.812,15.227,15.227,0,0,0,7.307-1.8,4.4,4.4,0,0,0,.572.572l4.4,4.4a4.49,4.49,0,1,0,6.338-6.338l-4.4-4.4a4.4,4.4,0,0,0-.7-.572,15.2,15.2,0,0,0,1.937-7.307A15.423,15.423,0,0,0,15.45-.045Zm0,4.4a10.952,10.952,0,0,1,11,11A11.037,11.037,0,0,1,23.5,22.976l-.132.132a4.4,4.4,0,0,0-.572.572,11.014,11.014,0,0,1-7.439,2.773,11,11,0,1,1,0-22.008Z" transform="translate(0 0.045)" fill="#aeaeae"/></svg>