<svg width="886" height="925" viewBox="0 0 886 925" fill="none" xmlns="http://www.w3.org/2000/svg">
<g clip-path="url(#clip0_2_5)">
<path d="M462.684 922.53L462.394 921.864L463.147 915.684L462.481 909.533L462.697 907.984L463.61 906.19L467.72 902.745L468.921 900.488L472.25 896.782L470.137 894.395L468.589 893.497L465.332 892.629L461.974 889.372L460.223 887.027L460.078 884.727L459.456 883.019L457.676 880.081L454.695 876.839L453.724 875.985L450.266 874.233L448.167 874.538L445.417 872.352L443.217 869.992L441.408 868.864L441.205 866.404L438.455 863.277L433.651 862.612L432.32 861.931L429.815 859.529L427.268 859.717L424.128 857.72L421.363 852.35L419.757 850.194L416.095 847.126L415.082 847.242L414.112 849.832L410.364 853.074L406.5 853.248L406.644 849.109L407.223 847.255L406.659 845.809L401.376 839.6L397.946 837.038L394.791 834.056L392.259 831.003L388.365 827.804L385.615 827.602L382.503 827.906L380.854 829.874L380.766 831.264L379.276 832.667L377.67 832.696L376.83 832.001L372.257 832.204L371.316 831.509L371.084 830.192L370.376 829.874L371.605 829.556L373.111 828.514L376.758 824.505L376.917 821.842L377.785 820.033L378.972 819.382L380.839 819.28L381.766 818.904L383.097 817.456L390.984 808.078L391.897 806.023L392.142 804.416L393.329 802.868L395.066 801.637L397.048 801.044L399.886 794.937L400.03 794.054L400.479 793.518L402.852 792.274L405.211 789.669L406.442 788.005L407.18 786.138L409.119 783.098L410.465 782.678L412.738 782.939L413.533 784.082L414.213 782.23L413.91 781.391L411.956 780.204L411.884 779.683L412.39 779.205L413.953 778.655L415.14 777.265L419.178 775.89L420.698 774.342L420.842 773.01L422.029 771.694L425.227 770.029L428.802 769.45L431.364 766.831L431.581 765.297L433.492 761.881L433.969 761.823L434.041 762.344L434.461 762.633L436.387 762.388L439.918 760.752L443.796 759.898L445.548 759.073L448.587 755.672L449.31 755.686L450.28 755.122L451.742 753.168L455.085 752.111L455.519 752.662L460.614 753.226L465.332 751.562L466.142 750.389L468.076 751.22L468.082 751.186L466.128 750.346L465.317 751.519L460.599 753.197L455.505 752.632L457.603 748.392L458.66 745.367L457.82 740.664L458.414 736.018L458.356 732.327L459.746 729.795L459.77 729.795L459.456 728.072L455.794 722.023L455.823 718.274L454.39 714.105L449.441 710.676L447.863 712.311L444.795 712.152L443.203 712.774L441.655 714.077L439.541 712.514L438.355 712.6L437.949 709.416L438.905 707.144L440.453 705.306L442.219 702.151L442.306 701.659L441.597 700.573L441.626 698.779L442.928 693.511L444.751 689.14L444.389 685.811L446.242 682.366L445.938 680.89L444.722 679.617L444.274 677.301L445.229 675.767L446.373 674.986L449.817 672.727L450.338 671.541L452.61 660.079L453.088 659.572L454.695 659.109L457.096 657.647L458.067 656.663L460.165 651.51L458.067 656.663L457.096 657.647L454.695 659.109L453.088 659.572L452.61 660.079L450.338 671.541L449.817 672.727L446.373 674.986L442.681 671.613L437.747 668.878L431.972 671.729L430.988 672.815L428.586 673.524L424.852 674.146L421.436 673.48L419.974 672.539L419.293 666.36L418.831 665.347L417.528 663.972L417.196 660.397L417.933 658.457L417.007 657.314L416.877 656.677V652.523L415.589 649.672L414.72 645.707L414.648 644.665L415.502 642.696L415.531 640.366L413.259 638.789L412.708 637.631L412.477 634.505L410.089 631.871L406.948 631.494L404.763 631.944L402.115 631.523L398.555 628.687L397.743 626.531L395.515 627.008L392.374 630.973L390.927 630.106L388.437 631.278L386.874 631.509L384.356 630.51L380.651 629.801L375.644 630.134L370.347 629.106L369.652 627.789L366.772 627.601L365.484 628.354L361.866 627.08L363.182 616.558L362.56 613.114L363.429 611.059L364.847 608.946L365.715 600.219L364.76 596.847L364.687 594.342L363.588 592.954L362.965 592.823L362.257 593.764L361.33 589.046L360.187 586.34L358.435 583.416L357.929 580.767L363.762 577.438L364.861 576.164L358.783 570.578L366.569 554.05L368.191 553.963L367.785 550.881L366.714 550.693L371.389 535.742L372.344 534.064L367.871 525.597L367.915 522.832L366.96 521.863L366.497 520.704L367.278 519.677L363.747 516.566L361.895 517.477L361.142 517.405L359.448 516.421L358.797 515.408L355.874 513.367L353.138 512.267L352.704 511.804L352.27 510.183L351.937 505.943L351.055 503.381L350.779 498.084L352.053 495.71L353.703 494.133L354.195 491.556L354.122 488.821L352.734 488.908L352.154 489.777L351.604 490.008L312.73 488.445L311.21 470.137L303.438 461.265L310.502 461.178L309.995 450.251L306.174 442.551L305.464 439.7L305.841 438.166L306.724 437.37L307.664 435.518L305.581 431.277L301.079 429.771L299.53 428.469L298.46 428.411L294.712 426.168L292.874 424.098L282.626 425.488L280.716 424.865L280.354 424.431L275.462 425.386L274.767 425.155L274.015 423.201L271.106 421.088L269.239 418.989L268.603 416.268L266.345 415.516L265.099 415.979L262.48 416.095L256.589 413.476L256.576 412.896L255.62 412.013L253.782 412.867L250.916 410.435L248.717 409.032L247.472 406.919L247.067 404.907L245.561 404.342L243 405.964L241.234 405.92L239.193 404.763L237.934 402.837L233.404 400.551L230.568 400.305L228.918 401.087L227.615 402.316L225.545 402.071L225.097 401.636L221.999 400.899L217.57 400.493L216.471 399.871L214.763 398.149L214.329 395.298L212.042 394.588L209.307 393.184L208.12 390.695L207.701 390.406L203.764 390L203.214 389.494L201.998 384.125L200.725 382.836L200.03 384.515L199.075 384.052L198.684 383.125L199.582 380.912L198.366 378.711L196.397 378.147L194.573 373.124L194.327 370.723L196.571 366.51L196.267 364.109L194.588 361.257L193.502 358.131L193.416 354.816L194.313 354.093L194.863 352.11L196.368 350.59L196.889 348.463L196.541 346.307L195.934 345.018L195.804 342.804L196.585 340.416L194.892 337.261L193.416 336.711L191.838 338.13L191.752 338.867L190.536 340.257H189.711L186.555 338.781L179.059 338.896L170.939 341.473L168.494 341.458L166.351 342.153L162.053 340.33L166.35 342.153L165.917 342.848L163.644 343.803L160.619 346.104L156.481 350.142L154.093 351.387L153.137 351.126L150.922 351.387L150.851 352.197L148.071 354.079L145.061 355.511L142.977 358.16L142.34 359.868L141.457 360.273L139.764 359.188L138.665 359L135.234 359.071L134.25 359.448L133.338 360.099L132.817 361.344L129.286 366.38L123.829 368.19L122.614 369.189L119.806 369.926L118.316 369.97L118.431 366.916L116.463 367.205L111.325 366.091L103.741 365.411L96.3749 365.961L95.4196 365.122L92.1339 364.875L86.9813 367.523L83.0306 368.421L80.5989 367.452L78.5729 365.367L76.1988 367.046L76.2574 341.646L76.3291 340.054L77.0101 339.026L77.1115 335.625L76.7347 334.352L78.1384 332.644L78.8333 330.995L77.1542 331.284L72.8556 335.032L70.5402 336.494L67.5588 339.938L64.7365 340.908L63.796 342.471L61.1765 343.904L44.0981 344.121L41.0878 344.064L41.8692 341.444L41.566 340.242L41.2042 339.533L39.3948 338.52L39.192 337.869L39.5826 336.205L38.4683 333.383L36.8906 332.456L28.7863 330.647L18.163 330.372L18.5537 329.561L22.1575 326.291L23.4459 324.511L23.8653 322.774L23.5472 320.994L22.563 319.677L21.3611 319.04L18.9304 314.77L17.816 314.133L16.5127 313.859L14.8773 312.223L13.5461 308.779L10.6512 306.564L9.23364 301.325L7.974 298.952L5.25305 297.389L5.13782 295.695L6.30981 295.84L6.91724 295.087L7.01868 294.117L6.72937 293.51L3.6615 292.164L3.1405 291.208L0.00012207 288.473L0.0577393 287.938L0.954346 287.865L1.6781 285.955L1.66431 284.058L6.02051 283.495L6.74426 282.93L6.42517 280.977L4.73218 278.704L30.711 289.529L64.9542 297.721L30.712 289.529L4.73315 278.704L4.63171 277.764L5.64478 273.538L7.41028 271.511L14.5314 266.489L17.8021 266.141L18.4821 265.708L19.9008 263.45L20.0161 261.959L17.4979 255.461L18.0476 253.738L19.7556 250.569L21.6086 248.658L22.9398 246.849L23.5472 245.431L23.9817 242.913L23.5621 241.002L24.5314 238.05L24.9808 234.706L26.0376 233.621L31.3343 231.262L34.5036 229.482L36.1678 227.976L36.8051 225.95L37.9334 225.415L39.9744 225.256L42.3623 223.91L47.4861 219.958L50.9885 219.336L53.1736 219.756L59.2379 217.99L61.4091 216.876L64.0425 216.355L68.8621 216.905L70.744 214.604L71.6556 212.505L73.2333 211.622L76.3301 211.912L77.2567 212.693L79.1674 212.346L80.7589 211.275L83.2333 211.449L83.6827 212.216L83.6539 213.923L85.9841 215.79L90.079 215.906L90.9191 215.328L91.5851 214.198L91.4251 213.634L93.1191 206.514L102.816 152.718L104.494 148.492L103.061 141.313L103.235 140.937L101.354 139.417L99.2122 135.437L99.1535 134.728L100.095 132.717L99.3424 130.14L98.8066 129.561L96.3461 128.707L91.9609 125.306L89.1534 122.006L89.4427 105.348L95.0726 104.971L97.6057 103.278L102.671 101.947L106.55 104.494L108.316 104.653L110.154 104.031L109.444 101.585L109.878 99.0958L107.896 96.0567L107.071 95.2744L105.407 94.4065L103.221 95.174L99.1833 94.2912L94.0158 94.4214L93.9293 80.0929L95.3192 80.1505L97.2289 79.3115L100.529 78.4426L104.639 79.7022L132.181 79.7887L131.516 78.8333L130.372 78.6315L129.822 76.8947L131.197 74.1012L133.266 74.6798L134.149 76.8798L135.409 78.7905L136.364 79.2966L137.565 79.3115L139.895 78.4287L142.703 75.4035L143.166 74.1877L144.989 72.3932L148.681 70.3811L150.548 71.0472L152.241 74.7812L154.585 77.6612L155.656 79.5431L156.612 82.1189L156.944 84.3627L156.235 89.6157L156.524 92.1627L161.156 91.0781L173.183 101.296L174.326 101.7L177.944 102.005L181.273 100.557L183.734 98.0967L186.787 96.4186L189.957 96.2586L190.767 96.6791L191.882 98.2419L191.853 99.6456L190.247 102.106L190.781 103.525L191.621 103.915L193.546 102.874L194.356 101.556L194.689 99.6893L196.137 98.0102L196.817 97.6772L198.264 97.9377L199.061 97.6772L199.654 96.7218L200.319 93.3785L201.058 92.8437L203.243 92.3228L207.483 89.7609L208.888 90.5562L210.234 90.1367L212.549 88.6315L214.025 86.3013L217.079 84.5506L220.017 85.3469L223.433 82.958L224.228 81.772L224.865 77.9217L224.822 76.0547L225.936 74.7235L227.427 74.1151L229.946 74.0863L231.885 73.5216L234.866 71.2062L236.255 70.6714L239.555 70.237L239.989 68.4425L240.424 67.7765L240.757 64.4769L240.322 64.1578L235.445 63.8258L230.017 64.0276L225.227 63.0145L224.937 62.1467L226.095 59.5997L226.269 57.4573L225.212 54.8954L222.405 49.7726L221.348 46.7912L220.668 41.4069L221.811 39.2645L221.695 37.8757L219.033 34.9808L215.906 33.4468L211.839 29.4236L210.305 26.804L209.886 25.4142L208.235 24.4737L207.874 23.9091L207.917 22.6932L208.337 22.216L209.639 22.3174L211.261 23.2728L212.621 25.7761L213.503 25.9063L218.411 25.1826L220.364 25.3277L223.129 26.1817L224.011 27.9184L224.807 30.711L225.589 31.218L226.978 31.1027L228.049 30.1612L229.424 29.5826L234.026 29.8142L234.706 29.8868L236.602 31.6375L237.471 31.8552L238.224 31.6524L239.107 29.3947L241.002 29.5965L243.101 30.9426L248.788 37.5566L250.308 38.3817L251.336 38.5408L253.522 37.5566L254.592 35.9212L254.737 34.7064L253.535 30.711L254.057 28.1928L254.722 27.7882L257.516 27.7156L258.977 26.124L261.221 24.5463L262.307 24.6179L267.95 26.5575L268.804 26.3119L269.963 25.27L271.453 24.8356L273.089 25.3416L274.579 25.0384L276.519 23.1853L277.966 22.8235L279.631 23.1565L281.237 23.0551L282.221 21.8253L282.294 19.8709L286.679 17.2513L290.051 17.5267L294.046 16.962L295.333 15.3267L295.463 14.2987L296.317 12.6783L297.403 12.4904L300.081 11.1871L301.673 9.68193L303.279 7.20752L301.542 2.0549L299.849 1.53397L300.775 1.2735L302.845 1.37491L304.003 1.83817L309.169 1.69302L310.703 0.31813L311.775 0L313.757 0.607422L314.525 2.50426L316.03 3.66142L316.724 5.64473L315.755 12.7359L314.713 14.7332L312.904 15.7462L312.99 16.9481L315.32 17.5416L317.665 17.2225L321.066 18.3946L323.701 19.9872L322.426 22.057L322.412 23.7212L325.798 28.671L326.089 30.9138L323.903 35.1399L321.182 37.1808L320.14 39.352L320.531 39.9157L320.618 43.0572L318.491 46.5446L317.187 50.554L316.739 54.2731L316.609 58.1373L318.027 60.8443L318.765 63.3913L318.751 65.4174L321.023 66.9076L322.325 67.1979L322.514 68.1821L321.848 75.6351L322.022 76.7058L324.641 77.1263L323.686 78.8194L324.352 79.5431L327.464 80.6138L329.576 83.3924L333.427 87.358L339.548 88.8632L339.554 88.9216L340.604 89.3702L341.227 90.2092L341.198 90.9041L341.849 91.4827L343.181 91.8883L345.163 90.8604L345.843 89.6883L349.766 90.0213L350.938 88.5013L350.157 85.8817L352.748 85.3608L354.788 83.0017L358.609 84.4631L361.33 84.5068L362.111 82.3068L366.931 79.9626L369.782 80.5273L371.46 80.3672L372.17 80.0064L373.907 77.864L374.485 75.8379L376.599 74.2453L377.844 74.0863L378.784 74.7523L381.838 73.117L382.431 73.276L382.966 74.7086L384.023 75.3598L386.961 76.0547L389.291 76.4165L390.101 75.5486L392.519 74.984L393.647 75.3886L394.835 75.3747L396.079 74.8826L399.321 75.317L406.08 77.3142L407.469 77.1114L408.916 75.8519L408.873 72.5523L405.877 68.9336L404.083 68.022L404.792 65.5913L406.688 63.4927L407.093 61.8862L407.542 61.6396L408.569 61.915L409.77 63.0145L413.171 64.6211L429.989 61.2489L432.261 63.6945L433.737 63.782L434.358 63.373L434.331 63.3476L434.838 63.0434L436.27 63.4778L436.256 64.6499L435.836 64.9104L436.328 66.3151L438.455 66.2276L439.642 66.5606L440.149 67.863L441.365 68.8909L444.621 70.0192L449.383 71.1048L453.377 68.529L453.883 67.4295L456.388 65.7355L457.589 65.316L458.588 66.6769L462.51 68.0369L464.072 67.863L466.562 66.4016L466.736 65.7932L467.199 65.8369L469.311 67.7188L469.022 68.9774L472.453 68.7318L473.191 69.4556L474.565 69.7011L475.463 69.6872L476.779 68.9923L479.197 66.8211L481.773 65.2295L484.306 61.9001L484.841 60.4536L484.552 59.6712L489.082 50.2647L489.241 47.6302L490.847 45.7483L491.904 45.4739L497.115 37.0943L497.448 35.4292L498.662 33.6924L501.253 31.4496L502.166 29.0468L505.219 27.3975L505.9 26.0654L507.405 25.2263L508.215 27.3388L509.489 29.3072L507.072 22.3602L506.97 20.4932L507.231 20.016L512.108 23.5184L513.758 25.27L515.075 27.0356L515.827 28.7575L515.871 31.044L516.508 31.4934L516.971 30.7985L517.521 30.6533L517.824 31.2329L518.129 42.6516L519.084 48.2526L523.006 57.0089L526.856 69.9477L531.661 77.184L533.122 77.69L537.855 77.5747L541.879 78.9347L543.746 80.1654L544.86 84.0008L544.628 88.8204L542.761 90.2092L540.258 90.8316L539.708 91.3097L542.298 91.092L543.803 90.4846L544.209 90.8176L544.383 91.6706L544.136 92.7274L536.856 98.6037L535.163 101.643L532.052 103.684L529.244 109.067L525.032 114.133L524.019 114.798L522.659 114.668L520.56 115.421L517.55 119.734L515.61 119.836L514.525 121.138L512.397 123.57L510.994 126.783L509.372 129.489L508.157 130.429L503.8 135.423L503.279 138.896L503.526 141.501L500.703 144.12L499.285 144.294L497.925 144.208L496.81 144.7L494.928 144.873L490.924 143.897L490.934 143.904L494.972 144.888L496.853 144.714L497.968 144.222L499.328 144.309L498.561 145.38L498.981 147.681L498.735 148.448L496.868 150.054L494.856 150.301L494.132 150.041L492.917 148.896L491.962 148.68L487.07 150.966L486.534 151.747L484.219 152.79L483.307 152.761L481.063 153.614L481.122 154.454L490.471 152.921L491.744 153.876L491.933 154.541V155.496L491.035 156.22L491.47 156.741L492.381 156.452L493.626 155.004L495.102 154.989L495.869 154.599L496.738 154.773L498.287 154.165L499.936 153.34L504.683 149.953L506.854 149.447L509.517 148.275L514.09 145.612L514.872 144.164L515.842 143.412L518.866 141.95L519.822 140.907L519.46 139.938L519.764 139.345L521.399 138.94L522.977 139.026L523.571 139.331L524.12 144.83L523.368 148.564L523.845 150.908L525.018 153.224L526.914 155.178L527.347 157.551L527.174 158.232L524.511 160.895L523.831 161.083L522.571 160.331L519.938 159.577L518.114 159.129L516.768 159.332L513.686 157.827L513.309 156.205L512.036 155.439L508.736 160.967L507.853 164.397L508.837 168.696L509.531 169.622L510.864 170.519L509.401 168.87L508.779 164.976L508.953 164.224L512.672 158.116L516.015 159.824L516.175 160.475L519.837 164.021L519.475 166.945L518.404 167.74L518.983 171.112L519.735 172.748L521.356 173.833L522.427 174.051L523.18 174.76L522.688 173.833L521.573 173.486L519.837 171.981L519.518 170.997L520.01 164.918L521.197 163.196L523.266 164.253L524.467 165.99L524.337 167.133L526.074 168.377L526.436 167.958L524.988 166.134L523.657 163.095V162.458L526.928 159.1L529.273 159.23L532.066 160.157L532.558 160.967L531.675 161.821L532.138 162.227L532.833 162.269L534.323 162.024L536.249 160.722L542.168 159.332L543.282 159.621L545.801 161.155L550.388 160.548L551.937 159.954L553.414 158.493L554.831 157.639L557.35 156.9L558.465 157.001L558.551 158.087L555.599 163.905L555.252 166.076L554.586 167.625L553.385 169.115L553.37 170.389L554.209 172.444L553.747 176.019L555.02 174.297L555.034 172.27L557.263 167.929L558.898 163.311L560.52 161.054L560.91 160.663L562.01 160.591L562.85 160.084L563.578 159.992L562.735 159.751L561.693 160.374L561.287 160.041L562.59 157.725L563.574 157.147L563.907 158.231L564.644 158.767L564.269 159.52L563.689 159.978L565.484 159.751L566.757 157.798L568.943 155.351L570.911 152.08L571.664 151.415L572.807 152.124L573.704 151.458L576.049 154.845L577.771 155.699L577.698 154.628L577.193 153.543L578.089 152.08L583.169 151.343L581.679 150.88L576.599 151.546L576.151 151.241L576.57 147.724L577.308 147.305L578.278 147.854L579.754 148.013L581.302 143.527L580.318 141.516L580.362 140.532L582.055 137.912L586.166 134.322L586.687 134.207L588.293 135.857L592.534 132.832L593.199 132.731L593.778 133.382L593.923 134.207L593.46 135.176L595.008 134.945L596.181 134.105L596.701 132.976L597.613 132.702L598.019 132.918L599.089 134.931L601.015 136.667L601.304 135.857L601.145 135.306L599.755 134.598L599.553 134.178L599.365 132.441L599.61 131.833L600.248 131.558L603.547 131.934L605.255 132.876L606.153 134.351L608.512 135.379L610.9 134.251L611.666 137.347L610.943 137.796L610.9 138.65L612.231 137.897L613.91 134.496L614.46 134.829L614.127 136.754L614.72 137.391L618.353 137.014L619.004 137.955L619.67 140.386L618.802 141.761L620.032 141.038L620.409 141.573L623.144 141.776L628.252 139.982L627.804 142.268L626.719 144.917L628.846 144.208L629.7 143.31L630.612 145.654H631.48L631.827 145.307L631.741 144.526L632.233 143.44L633.072 142.674L635.012 144.092L635.663 146.755L637.386 146.929L638.5 144.96L639.383 149.2L640.815 149.258L641.235 148.549L641.336 147.189L642.567 147.131L645.013 147.898L645.736 148.897L643.667 151.357L644.636 152.37L644.666 153.166L646.416 150.214L647.125 147.985H647.777L648.356 149.461V150.301L647.096 151.632L646.706 153.065L646.822 156.988L647.198 157.465L647.878 157.639L648.718 157.436L650.107 156.09L649.427 154.642L649.63 153.775L651.54 151.705L653.059 151.343L656.142 152.197L658.313 150.59L658.386 151.921L657.865 152.226L656.23 154.44L657.083 155.28L657.228 154.744L659.037 153.876L659.876 155.019L659.673 156.77L662.032 159.303L663.277 158.666L665.564 159.636L666.678 163.109L666.519 164.484L663.35 168.435L662.8 169.723L662.944 170.679L663.813 169.188L666.346 166.756L667.547 166.713L668.806 167.885L669.558 170.62L669.167 172.401L667.764 172.676L666.273 173.992L664.594 176.15L664.696 177.264L663.017 180.665L662.12 185.759L662.423 186.251L663.683 186.584L663.625 187.061L660.672 190.173L660.05 190.419L659.992 192.503L662.844 190.043L663.827 188.292L666.896 186.006L668.184 184.355L669.674 175.194L671.339 174.181L672.945 174.007L675.362 172.676L676.303 172.487L676.968 172.661L677.085 175.02L676.795 175.671L674.74 178.377L670.094 180.911L670.05 181.952L671.107 182.126L671.758 180.954L673.423 180.506L673.741 181.707L672.887 182.444L673.249 182.879L679.342 175.686L680.587 176.164L684.321 174.817L690.167 175.44L689.502 171.952L690.385 171.619L693.888 171.735L696.463 172.284L700.27 173.804L701.775 173.964L704.887 175.961L706.913 176.004L708.737 177.885L711.472 179.796L715.09 180.636L716.769 180.361L717.58 181.46L718.072 181.533L720.372 181.403L723.933 182.358L724.309 181.056L723.34 180.376L725.757 179.825L726.582 179.984L726.452 180.592L725.786 182.662L726.119 183.704L727.03 184.485L726.48 186.699L723.89 189.985L717.915 195.728L717.999 195.716L723.976 189.971L726.567 186.686L727.132 184.472L726.205 183.704L725.887 182.662L726.553 180.577L727.61 180.751L729.737 182.011L730.475 182.749L730.287 183.197L731.894 183.675L733.789 183.848L734.787 183.516L738.029 184.254L739.463 185.485L739.926 186.352L740.201 186.15L740.142 185.253L739.563 184.298L740.504 183.125L750.259 182.806L754.442 182.184L757.438 181.229L768.148 182.373L771.216 183.993L774.023 186.165L779.986 189.319L782.1 190.072L789.075 194.414L790.826 194.703L794.039 198.018L798.367 201.072L802.087 202.114L805.618 206.325L807.384 207.208L811.667 212.722L817.688 217.18L819.801 220.075L821.306 221.507L823.478 222.694L825.142 222.737L828.572 224.069L829.715 225.038L830.439 227.007L823.361 229.308L819.585 232.217L814.809 241.899L813.593 243.52L812.333 244.346L811.393 246.762L812.333 244.346L813.593 243.52L814.809 241.899L819.585 232.217L823.362 229.308L830.439 227.007L831.12 228.106L832.364 229.192L836.894 229.178L838.659 229.772L841.106 232.304L843.016 233.027L847.835 232.564L852.003 233.317L855.68 232.97L859.052 231.913L865.565 233.244L867.403 233.303L870.225 234.547L871.701 235.733L872.628 237.094L875.971 243.955L876.695 246.545L876.636 247.63L878.779 255.417L879.083 257.848L880.125 258.63L881.514 262.523L881.818 264.723L881.948 268.197L884.047 274.551L884.133 275.476L883.873 276.837L883.338 277.488L883.294 278.762L884.133 277.691L884.872 275.52L884.886 278.386L885.74 279.847L885.349 287.344L884.828 288.213L883.468 288.227L879.849 285.245L878.662 284.87L874.827 284.565L871.484 286.114L869.342 287.966L868.691 290.572L865.941 292.062L863.031 292.713L861.382 292.685V293.553L860.224 294.32L857.069 294.74L851.454 294.364L849.123 295.637L848.327 296.564L845.694 296.708L844.405 297.707L843.624 298.807L844.405 297.707L845.694 296.708L848.327 296.564L849.123 295.637L851.454 294.364L857.069 294.74L860.224 294.32L861.382 293.553V292.685L863.031 292.713L865.941 292.062L868.691 290.572L869.342 287.966L871.484 286.114L874.827 284.565L878.662 284.87L879.849 285.245L883.468 288.227L884.741 288.56L885.537 290.326L883.7 292.815L883.54 293.611L883.555 294.306L884.568 294.841L884.958 295.565L885.234 297.099L882.396 306.333L877.693 319.286L873.67 326.465L867.085 333.889L861.903 339.07L857.503 345.699L852.683 349.868L851.236 352.805L849.326 355.396L845.882 356.495L839.268 360.75L837.864 362.039L835.62 365.237L835.157 365.208L835.317 363.616L833.797 360.982L832.364 361.214L832.856 362.893H834.651L834.984 363.24L834.231 366.091L832.393 369.116L831.626 368.609L831.091 367.64L829.657 367.408L829.947 368.392L831.583 369.289L831.206 371.851L829.961 373.515L828.615 376.454L827.487 376.671L827.053 376.004L827.747 373.978L828.34 373.791L828.789 373.168L829.324 371.663L828.152 371.127L828.297 372.111L827.646 373.747L826.951 374.471L826.574 376.048L826.98 377.09L826.603 377.843L824.866 378.74L820.67 380.029L818.426 379.102L817.645 378.61L816.95 377.568L814.172 376.236L813.304 375.484L813.161 375L813.042 375.137L813.216 375.744L814.07 376.497L816.864 377.829L817.559 378.856L818.34 379.348L820.583 380.274L824.766 379.001L825.692 378.972L826.213 379.565L820.308 392.345L814.765 399.856L813.274 403.228L805.994 411.536L802.449 413.359L801.189 413.344L801.623 411.276L802.158 411.058L802.361 409.466L801.71 406.673L799.004 406.311L798.382 404.43L797.397 403.344L796.862 404.212L796.196 407.584L795.473 408.844L794.676 409.394L793.866 408.974L793.156 406.456L793.315 405.993L793.765 405.805L793.721 405.24L792.462 407.107L793.808 409.553L794.474 409.886L795.009 409.669L796.674 410.045L796.008 412.664L794.257 414.33L793.895 416.963L792.086 418.367L791.579 419.337L791.289 420.553L791.523 421.655L792.635 421.566L792.867 421.855L793.026 423.491L792.028 425.763L791.116 425.719L791.13 424.749L791.507 424.228L790.349 423.91L789.742 423.331L789.929 421.783L791.198 421.681L789.596 421.218L789.292 421.783L788.771 425.43L789.292 424.387L790.378 424.691L790.725 425.473L790.393 426.066L790.479 426.964L790.914 427.398L791.391 428.845L789.886 432.478L790.711 437.456L789.914 438.166L789.09 437.848L788.888 439.483L789.742 440.148L791.492 437.659L790.812 434.461L791.999 433.578L792.361 434.359L792.274 436.906L790.885 440.684L789.814 448.543L789.075 451.162L789.365 454.737L790.494 458.862L790.768 465.432L792.028 474.71L793.461 479.659L790.262 489.299L788.308 498.923L787.628 500.385L787.396 504.524L785.862 509.908L785.732 513.28L786.297 519.677L787.585 522.152L784.343 526.465L781.724 527.435L780.363 528.361L776.426 533.991L775.602 536.944L763.893 529.505L763.445 528.737H763.444L763.443 528.736L762.127 527.941L763.444 528.737L763.878 529.505L775.601 536.944L774.255 541.792L773.806 545.931L773.98 551.127L775.022 560.028L774.574 563.603L772.417 568.204L768.437 570.217L767.641 571.084L765.224 575.904L763.805 581.404L762.691 583.531L761.49 582.547L760.217 582.359L759.797 584.212L761.75 584.965L758.943 591.1L753.95 596.659L753.603 596.268L750.91 597.222L749.752 599.003L749.666 601.015L749.058 602.823L746.757 605.747L746.342 607.363L746.395 607.397L746.28 609.236L744.919 611.566L744.601 614.649L746.25 624.461L745.527 625.445L741.069 627.978L732.428 630.786L728.333 633.275L723.267 638.615L723.108 641.018L723.557 642.74L723.282 645.084L722.226 647.227L719.591 647.965L710.112 647.719L701.731 648.732L698.273 648.066L697.564 647.516L697.476 646.532L698.968 644.39L699.937 642.292L699.807 641.394L698.678 641.134L694.64 642.798L694.263 643.797L694.713 644.94L696.71 646.633L697.072 648.037L696.218 648.789L693.859 649.528L691.586 649.484L679.95 651.033L677.837 651.684L677.736 650.555L678.286 650.164L682.902 650.483L686.651 649.629L682.99 647.386L680.963 646.662L676.897 647.646L674.928 649.963L673.437 650.425L672.424 650.353L670.471 647.242H669.776L668.473 647.849L667.084 649.383L662.524 650.541L662.032 651.858L661.758 654.608L664.927 654.796L666.476 656.257L664.812 657.821L663.451 657.575L661.423 657.818L661.352 658.053L658.907 658.66L657.373 657.473L655.23 659.08L654.608 660.021L654.999 660.339L653.899 661.266L649.239 663.509L645.982 664.522L645.577 665.159L645.635 666.548L646.359 668.792L645.896 669.399L643.869 669.776L642.856 668.849L640.917 668.43L636.401 667.706L635.157 667.923L633.246 668.415L630.743 669.602L630.019 670.339L628.267 673.452L626.372 674.276L625.648 674.103L626.487 673.422L625.793 671.657L624.099 670.427L622.898 672.207L623.275 673.292L622.84 674.175L611.812 680.312L610.437 681.499L609.988 683.178L605.256 687.519L600.552 690.341L597.773 691.109L591.261 695.755L587.888 698.591L586.918 698.706L586.282 699.604L587.584 700.226L588.54 700.313L589.886 699.792V700.892L588.988 702.788L587.078 704.018L585.544 706.159L585.544 706.16L583.59 707.637L582.707 709.778L581.911 709.605L582.302 706.796L584.386 705.422L582.345 705.827L581.057 706.536L579.798 706.507L579.306 705.943L578.481 705.697L577.699 706.233L577.294 707.578L578.047 708.736L576.991 710.126L576.556 710.27L572.966 709.504L571.823 708.721L571.172 708.895L570.911 710.197L571.404 710.733L573.734 711.543L575.76 711.182L578.843 712.05L579.233 712.745L577.83 713.73L575.601 717.753L573.806 718.867L570.304 719.692L570.014 720.344L574.284 720.054L574.5 721.776L574.211 722.775L574.141 722.775L573.589 724.642L574.327 727.03L574.226 727.595L572.055 729.244L570.636 728.55L569.449 724.888L569.42 726.509L570.274 730.446L572.75 732.848L573.56 734.223L572.099 737.537L571.867 740.895L572.011 741.518L573.112 742.574L573.487 751.056L573.936 751.851L574.559 752.14L575.672 751.403L576.179 752.444L576.325 753.704L575.644 753.79L575.021 753.385L573.299 754.296L572.807 759.855L573.632 763.604L572.807 764.688L573.256 767.482L574.573 770.203L573.328 773.59L572.576 779.393L570.101 786.167L569.609 786.021L569.088 784.922L569.391 783.518L568.06 781.81L567.684 782.287L567.944 785.805L569.623 787.006L568.292 789.408L565.918 790.349L559.941 794.749L555.888 798.454L550.461 804.88L548.956 807.6L546.93 810.104L541.285 820.293L535.192 837.081L526.075 852.249L518.201 861.888L508.78 870.514L499.966 875.84L495.479 882.077L495.219 881.456L496.159 879.168L496.651 876.014L494.943 873.539L495.089 872.931L496.435 872.685L497.896 873.264L498.706 874.103L500.182 874.161L503.916 872.121L505.103 871.137L509.228 865.766L510.314 864.768L510.965 865.044L512.441 864.768L513.961 863.552L515.306 861.714L515.842 859.573L516.103 858.227L515.77 855.187L516.059 853.204L518.331 853.103L519.402 853.537L519.793 854.738L520.3 854.363L519.88 852.336L520.618 849.34L521.313 848.515L525.279 846.214L526.335 844.651L527.015 840.67L526.711 837.371L527.522 836.386L528.245 837.545L528.781 837.588L529.403 836.98L530.083 832.522L529.939 831.886L528.564 830.12L527.594 830.077L527.218 831.075L527.464 831.639L527.261 832.465L526.755 832.754L524.57 832.725L521.66 833.304L521.168 835.634L520.401 835.707L519.229 835.069L519.373 832.595L518.186 831.306L516.681 831.785L515.813 831.09L514.757 829.267L514.178 827.168L514.351 826.343L513.425 825.344L512.543 829.267L513.179 832.522L514.988 835.576L514.163 836.748L513.092 840.425L513.642 844.81L513.382 845.924L512.687 845.388L513.064 845.042L513.02 844.014L512.34 842.161L511.689 841.597L510.921 842.552L510.878 844.534L508.837 849.268L508.765 852.002L509.083 852.755L508.041 853.769L505.711 854.695L504.828 856.982L498.909 859.254L497.867 860.021L497.1 862.323L496.956 865.607L495.551 868.893L492.136 870.775L491.977 873.322L492.671 874.523L493.033 875.999L491.658 876.809L491.296 878.995L491.918 879.863L492.902 879.66L494.784 880.573L495.001 881.889L491.918 884.277L488.561 890.82L485.767 900.777L482.859 907.275L480.427 910.922L469.152 921.82L466.012 924.121L465.491 924.136L462.684 922.53ZM541.097 806.746L541.503 808.151L541.097 806.746ZM542.878 800.089L542.125 801.97L540.417 802.26L538.55 804.706L538.507 806.746L538.564 804.706L540.417 802.26L542.125 801.97L542.892 800.075L543.428 797.832L542.878 800.089ZM545.555 805.097L546.546 806.331L545.555 805.082L543.917 804.433L545.555 805.097ZM541.112 805.357L543.262 804.174L543.254 804.17L541.112 805.357ZM544.165 791.97L543.109 794.661L544.165 791.97ZM547.74 785.703L549.01 789.078L549.014 789.075L547.74 785.688L542.892 785.196L539.839 785.776L530.156 784.242L528.477 783.459L525.336 779.61L524.627 777.468L525.322 779.61L528.463 783.459L530.156 784.256L539.839 785.79L542.892 785.211L547.74 785.703ZM517.868 769.219L522.253 774.27L524.627 777.468L522.268 774.27L517.883 769.219L515.61 767.786L514.583 767.83L512.6 765.586L504.554 760.463L501.934 760.955L501.804 761.649L499.491 761.375L499.503 761.404L501.804 761.678L501.934 760.984L504.554 760.477L512.6 765.601L514.583 767.844L515.61 767.8L517.868 769.219ZM494.466 755.845L498.051 757.87L498.04 757.844L494.466 755.831L491.181 754.485L487.142 754.717L484.913 754.456L481.166 755.05L478.401 753.386L474.681 753.907L472.323 752.488L467.884 752.532L467.879 752.561L472.337 752.517L474.696 753.949L478.401 753.415L481.18 755.079L484.913 754.485L487.142 754.746L491.194 754.514L494.466 755.845ZM510.328 740.953L510.329 740.95L509.703 740.06L510.328 740.953ZM494.524 736.076L494.554 736.098L494.336 735.54L494.289 735.512L494.524 736.076ZM468.777 730.373L468.805 730.393L468.357 729.679L468.353 729.678L468.777 730.373ZM562.473 723.557L562.517 723.561L562.373 723.05L562.323 723.068L562.473 723.557ZM585.313 704.25L585.407 705.026L585.312 704.236L583.257 703.41L585.313 704.25ZM576.049 700.443L576.274 700.149L576.047 700.442L576.049 700.443ZM576.281 692.831L574.993 693.771L573.994 698.547L573.996 698.552L574.992 693.786L576.281 692.831L576.484 692.251L576.48 692.248L576.281 692.831ZM558.118 690.022L558.686 690.383L558.132 690.023L557.655 687.071L558.118 690.022ZM559.855 682.468L559.493 683.988L557.655 687.071L559.507 684.002L559.869 682.483L559.507 681.846L559.498 681.841L559.855 682.468ZM544.267 649.05L549.463 653.146L550.751 655.693L550.765 659.658L550.201 660.498L549.969 661.67L550.52 664.334L552.401 666.519L552.285 669.066L551.764 669.877L553.921 674.219L555.671 675.883L556.642 676.288L557.365 677.273L557.293 678.56L558.624 681.411L559.074 681.629L558.639 681.411L557.307 678.56L557.394 677.273L556.67 676.288L555.7 675.869L553.95 674.219L551.793 669.862L552.314 669.066L552.429 666.519L550.549 664.319L549.998 661.657L550.244 660.483L550.809 659.644L550.78 655.679L549.492 653.132L544.295 649.036L542.66 646.792L540.74 647.348L542.631 646.807L544.267 649.05ZM475.029 636.56L473.206 638.21L472.134 640.439L470.918 642.001L463.088 645.287L461.483 646.474L460.137 649.846L461.483 646.474L463.088 645.287L470.918 642.001L470.951 641.978L472.149 640.439L473.206 638.21L475.029 636.56ZM661.469 647.56L659.891 649.224L659.886 649.241L661.425 647.617L664.826 646.156L665.55 646.373L669.559 645.852L671.729 644.824L674.117 641.712L674.117 641.712L671.773 644.766L669.602 645.794L665.593 646.315L664.87 646.097L661.469 647.56ZM529.693 647.068L530.648 647.849L538.334 648.037L538.336 648.036L530.677 647.849L529.721 647.068L529.3 647.032L529.693 647.068ZM523.166 645.331L524.193 647.241L524.229 647.242L523.195 645.345L522.282 644.607L522.268 644.604L523.166 645.331ZM629.7 646.734L634.915 645.294L634.867 645.258L629.686 646.694L629.7 646.734ZM624.895 645.953L626.531 646.315L629.381 645.974L629.368 645.938L626.458 646.286L624.884 645.935L624.895 645.953ZM635.75 645.895L637.646 645.432L638.732 644.014L638.803 642.798L638.456 642.451L638.703 639.121L640.371 638.659L640.367 638.644L638.644 639.121L638.384 642.451L638.732 642.783L638.659 643.999L637.574 645.417L635.721 645.874L635.75 645.895ZM514.641 642.219L514.67 642.233L513.541 640.787L513.524 640.787L514.641 642.219ZM654.001 636.082L651.207 637.559L649.427 639.353L646.863 640.313L646.909 640.308L649.499 639.339L651.28 637.545L654.057 636.077L654.001 636.082ZM491.716 639.889L491.718 639.888L486.983 639.469L491.716 639.889ZM620.365 636.459L621.286 636.881L620.355 636.452L620.365 636.459ZM667.692 630.988L663.48 632.927L659.977 633.999L658.993 634.707L657.197 635.757L657.271 635.749L659.066 634.693L659.089 634.703L660.006 634.041L663.509 632.971L667.721 631.031L671.455 630.786L672.179 631.176L674.668 630.062L676.187 628.947L682.107 626.357L682.86 626.255L682.971 626.351L682.831 626.226L682.092 626.342L676.158 628.919L674.639 630.033L672.164 631.147L671.44 630.742L667.692 630.988ZM683.38 626.704L688.011 626.603L689.821 626.357L692.18 624.997L693.005 624.909L696.662 625.299L696.623 625.286L692.961 624.895L692.136 624.982L689.792 626.342L687.982 626.573L683.364 626.689L683.38 626.704ZM697.346 626.226L699.343 625.937L713.107 619.381L716.769 617.948L717.073 617.196L716.668 616.313L716.6 616.307L717.015 617.181L716.711 617.933L713.05 619.352L699.286 625.908L697.348 626.191L697.346 626.226ZM697.332 625.532V625.531L697.301 625.521L697.332 625.532ZM495.782 618.078L493.699 619.569L493.12 621.32L490.616 623.766L493.12 621.32L493.699 619.569L495.782 618.078ZM496.186 616.322L496.188 616.313L495.756 615.277L496.186 616.322ZM722.341 598.771L720.546 599.162L719.736 599.886L720.807 600.899L717.391 609.655L714.642 615.024L714.511 616.11L714.584 616.117L714.714 615.039L717.45 609.67L720.865 600.928L719.809 599.901L720.619 599.191L722.413 598.8L726.065 595.395L726.003 595.371L722.341 598.771ZM500.328 608.439L498.576 611.826L500.328 608.439ZM620.806 611.359L620.799 611.348L615.445 609.437L613.998 609.51L613.592 610.031L612.464 610.48L610.192 610.55L610.191 610.582L612.521 610.509L613.65 610.06L614.055 609.539L615.503 609.467L620.806 611.359ZM739.723 606.398L744.021 605.867L743.992 605.849L739.665 606.384L738.993 606.228L739.723 606.398ZM516.349 583.908L514.438 583.966L513.758 584.284L511.993 585.775L509.113 589.653L508.056 590.594L506.594 591.028L505.697 593.46L505.465 597.701L505.697 593.46L506.594 591.029L508.056 590.594L509.112 589.668L511.993 585.79L513.758 584.313L514.438 583.98L516.334 583.922L518.505 582.793L518.514 582.781L516.349 583.908ZM726.191 585.384L727.045 589.9L726.191 585.384ZM604.257 588.163L606.95 589.887L606.949 589.885L604.232 588.136L604.257 588.163ZM564.573 580.434L565.094 580.999L565.455 582.388L565.47 586.412L567.206 587.179L567.8 586.527L567.409 582.851L568.118 581.129L568.769 580.434L580.608 579.465L582.07 577.656L584.241 579.768L585.862 580.391L589.886 579.392L590.522 577.959L590.233 577.294L590.681 576.411L594.126 576.252L596.529 577.38L597.758 576.454L599.642 576.037L599.611 576.005L597.73 576.425L596.5 577.352L594.112 576.222L590.667 576.382L590.219 577.265L590.508 577.93L589.871 579.364L585.847 580.348L584.241 579.726L582.056 577.627L580.594 579.435L568.755 580.419L568.089 581.114L567.395 582.836L567.786 586.513L567.192 587.15L565.47 586.397L565.456 582.374L565.094 580.984L564.573 580.419L563.762 580.348L563.386 580.622L562.792 582.258L561.823 583.619L561.041 584.082L560.144 584.052L558.392 581.013L557.916 578.964L557.915 578.973L558.392 581.028L560.144 584.053L561.056 584.096L561.837 583.633L562.806 582.273L563.4 580.637L563.777 580.362L564.573 580.434ZM555.686 576.498L558.103 577.641L557.94 578.795L558.118 577.641L555.686 576.498L552.531 574.443L555.686 576.498ZM519.099 570.202L519.952 574.847L519.504 578.64L519.503 578.641L521.255 577.018L524.367 575.412L527.146 574.877L527.158 574.863L524.382 575.398L521.27 577.005L519.505 578.64L519.953 574.847L519.099 570.202ZM532.471 571.751L534.975 573.994L538.666 574.11L544.875 575.499L546.921 575.058L544.89 575.484L538.681 574.095L534.99 573.979L532.486 571.736L531.4 571.534L529.23 572.417L529.22 572.429L531.387 571.548L532.471 571.751ZM549.636 575.297L549.641 575.295L547.307 574.978L547.298 574.979L549.636 575.297ZM522.615 564.457L523.137 564.124L523.151 563.631L523.136 564.124L522.615 564.457L521.371 563.79L521.024 563.139L517.173 559.897L512.614 559.015L510.27 556.771L507.52 556.148L505.364 556.091L500.516 554.151L499.531 552.922L495.089 550.664L499.531 552.922L500.516 554.151L505.364 556.091L507.52 556.148L510.27 556.771L512.614 559.015L517.173 559.897L521.024 563.139L521.371 563.79L522.615 564.457ZM523.165 559.999L522.34 562.749L523.151 563.631L522.341 562.749L523.166 559.999L524.498 558.292L523.165 559.999ZM743.37 550.417L744.962 552.255L746.801 556.322L747.22 559.84L746.801 556.322L744.962 552.255L743.37 550.417L742.617 550.287L741.966 550.707L740.867 550.302L740.157 549.274L740.867 550.302L741.966 550.707L742.617 550.287L743.37 550.417ZM526.899 555.888L526.3 556.36L526.9 555.888L527.551 555.685L527.55 555.685L526.899 555.888ZM528.767 555.917L529.953 555.512L531.169 553.63L529.953 555.512L528.766 555.917L528.767 555.917ZM538.101 544.802L534.874 545.584L532.833 548.623L531.082 552.183L532.834 548.623L534.874 545.584L538.102 544.802L541.691 543.413L547.06 544.31L551.677 541.936L553.877 542.371L555.773 544.426H556.251L560.462 540.2L566.439 536.379L566.439 536.379L560.462 540.2L556.25 544.426H555.773L553.877 542.371L551.677 541.936L547.06 544.31L541.691 543.413L538.101 544.802ZM744.875 544.353L745.179 544.947L747.075 545.454L747.322 547.943L747.075 545.454L745.179 544.947L744.875 544.353ZM482.453 546.308L486.476 546.076L482.453 546.308ZM745.309 542.124L744.875 544.353L745.309 542.125L745.353 539.346L745.309 542.124ZM479.747 538.752L479.862 539.36L479.747 538.752L476.49 537.45L479.747 538.752ZM742.242 536.408L742.675 537.421L744.601 538.39L745.353 539.346L744.601 538.39L742.675 537.421L742.242 536.408ZM603.721 530.648L599.249 533.629L597.57 533.919L596.326 535.221L595.631 536.842L591.666 539.064L595.632 536.842L596.326 535.221L597.57 533.919L599.249 533.629L603.722 530.648L601.999 525.64L603.721 530.648ZM473.147 535.945L473.48 537.551L473.885 538.145L473.48 537.551L473.147 535.945ZM577.077 537.84L579.61 537.827L580.449 537.696L581.245 537.002L581.245 537.001L580.449 537.696L579.609 537.827L577.077 537.84ZM473.524 532.211L473.248 529.649L473.524 532.211ZM750.23 528.651L748.291 528.462L748.292 528.463L750.23 528.651ZM457.357 521.168L454.752 522.181L452.349 526.277L452.075 526.943L452.349 526.277L454.752 522.181L457.357 521.168L459.137 511.601L457.357 521.168ZM603.794 521.602L602.737 522.904L601.999 525.64L602.738 522.904L603.794 521.602L604.04 520.574L603.794 521.602ZM603.099 518.244L603.78 519.127L603.1 518.244L602.493 518.025L603.099 518.244ZM756.932 518.143L756.933 518.145L757.249 515.972L757.248 515.97L756.932 518.143ZM604.213 497.649L606.601 504.249V505.117L603.244 509.039L598.555 513.396L597.932 516.493L598.555 513.396L603.244 509.039L606.602 505.117V504.249L604.214 497.649L602.158 496.159L604.213 497.649ZM756.323 503.945L755.136 508.721L754.37 515.09L754.688 515.451L754.698 515.446L754.384 515.09L755.151 508.721L756.337 503.945L757.523 502.673L757.51 502.672L756.323 503.945ZM756.833 515.074L756.425 514.192L756.418 514.194L756.833 515.074ZM474.16 502.584L473.61 506.796L474.16 502.585L475.082 501.571L474.16 502.584ZM761.099 503.019L762.576 501.992V501.991L761.099 503.019ZM475.174 501.47L475.173 501.471L478.097 500.255L475.174 501.47ZM761.765 499.907L762.576 501.383L761.765 499.907ZM769.552 482.338L770.681 483.813L771.288 485.507L769.162 489.965L761.983 496.072L761.765 499.907L761.997 496.072L769.175 489.965L771.302 485.507L770.695 483.813L769.565 482.338L769.464 482.331L769.552 482.338ZM601.797 489.979L600.291 491.788L599.698 493.915L600.291 491.788L601.797 489.979L602.781 487.677L601.797 489.979ZM602.332 485.406L603.1 483.206L604.938 483.032L608.251 480.846L613.115 479.544L613.881 478.777L613.114 479.544L608.251 480.846L604.937 483.032L603.099 483.206L602.332 485.406ZM581.086 478.458L581.838 483.177L603.099 483.206L581.838 483.177L581.086 478.458ZM612.882 472.611L613.881 478.777L612.883 472.611L612.116 472.337L612.882 472.611ZM760.044 478.154L760.057 478.154L759.248 477.933L760.044 478.154ZM738.132 476.49L738.142 476.486L737.508 470.788L737.496 470.776L738.132 476.49ZM612.506 467.69L611.45 468.704L611.507 471.454L612.116 472.337L611.508 471.454L611.451 468.704L612.506 467.691L613.331 466.33L612.506 467.69ZM613.157 459.499L612.622 459.904L611.58 464.507L612.622 464.651L613.331 466.33L612.623 464.651L611.581 464.507L612.623 459.904L613.158 459.499L614.851 459.166L614.851 459.166L613.157 459.499ZM630.728 464.419L630.74 464.426L632.783 459.528L632.776 459.494L630.728 464.419ZM618.875 460.815L619.453 460.628L620.279 459.846L619.453 460.628L618.875 460.815ZM619.438 454.389L620.279 459.846L619.439 454.39L621.132 452.233L624.635 454.375L621.132 452.233L619.438 454.389ZM630.613 457.415L632.06 455.953L632.071 456.005L634.187 453.188L634.548 452.074L634.544 452.048L634.201 453.102L632.059 455.953L630.612 457.414L630.613 457.415ZM680.443 449.05L680.446 449.067L680.533 448.512L680.443 449.05ZM519.663 445.2L520.358 446.85L520.372 448.008L520.358 446.85L519.663 445.2ZM680.66 447.761L680.656 447.78L682.512 443.84L682.507 443.837L680.66 447.761ZM633.405 446.676L633.26 447.645L633.261 447.647L633.39 446.777L634.418 444.722L634.414 444.686L633.405 446.676ZM522.644 429.266L522.818 436.762L522.644 429.266ZM630.8 420.22L630.467 420.77L628.166 422.26L626.444 427.803L626.442 427.88L628.166 422.376L630.467 420.885L630.8 420.335L630.887 418.975L630.88 418.971L630.8 420.22ZM598.178 419.221L598.178 419.22L597.513 418.874L598.178 419.221ZM529.114 414.257L529.346 418.194L529.114 414.257ZM629.078 413.518L628.383 417.166L628.388 417.182L629.064 413.635L631.133 412.101L631.127 411.999L629.078 413.518ZM571.027 417.079V417.079L569.378 417.007L571.027 417.079ZM584.226 414.56L583.416 416.819L584.227 414.56L583.908 413.49L584.226 414.56ZM556.612 416.327L556.612 416.327L550.722 414.257L556.612 416.327ZM540.561 411.203L546.25 411.782L540.562 411.203L537.378 409.713L540.561 411.203ZM531.415 410.075L531.299 409.162L531.415 410.075ZM536.423 403.026L534.657 405.747L533.905 409.133L534.657 405.747L536.423 403.026L536.467 400.551L536.466 400.551L536.423 403.026ZM627.124 406.529L627.128 406.625L629.078 403.214L629.074 403.116L627.124 406.529ZM565.383 404.43L563.719 402.534L563.718 402.535L565.383 404.43ZM527.333 403.561L528.405 399.567L527.333 403.561ZM318.837 395.486L319.677 397.642L318.837 395.486ZM629.627 388.987L627.963 389.595L625.141 392.012L624.866 393.243L624.794 397.469L624.796 397.477L624.88 393.358L625.156 392.127L627.978 389.711L629.627 389.103L631.017 388.06L630.983 387.985L629.627 388.987ZM318.895 392.518L316.681 387.685L315.379 387.728L314.539 386.99L313.917 382.286L314.539 386.99L315.379 387.728L316.681 387.685L318.895 392.518ZM527 392.041L527.681 387.25L527 392.041ZM629.874 382.373L626.921 383.546L626.299 384.935L626.312 385.007L626.906 383.646L629.859 382.459L630.67 381.808L630.666 381.736L629.874 382.373ZM527.348 381.982L526.161 383.271L526.089 383.994L526.161 383.271L527.348 381.982L527.58 380.724L527.348 381.982ZM536.046 341.936L535.236 344.671L533.644 346.48L533.007 351.025L532.385 352.255L531.849 352.646L529.041 360.302L528.26 364.601L528.202 368.87L525.481 377.539L528.202 368.87L528.26 364.601L529.041 360.302L531.85 352.646L532.385 352.255L533.007 351.025L533.644 346.48L535.236 344.671L536.046 341.936L536.988 340.46L539.332 335.12L540.967 328.678L542.626 326.399L542.602 326.421L540.938 328.707L539.303 335.162L536.987 340.46L536.988 340.46L536.046 341.936ZM314.77 369.377L316.319 369.999L318.36 375.194L316.319 369.999L314.77 369.377L313.164 369.217L308.099 369.348L306.333 367.741L308.099 369.348L313.164 369.217L314.77 369.377ZM807.688 363.225L807.717 364.339L809.091 366.656L810.684 367.611L811.437 369.767L813.505 371.952L813.723 372.517L813.549 374.41L813.622 374.326L813.81 372.27L813.593 371.707L811.523 369.521L810.771 367.364L809.193 366.395L807.803 364.079L807.775 362.991L807.688 363.225ZM626.835 365.02L625.372 365.411L624.07 366.294L621.87 371.345L620.409 372.387L619.685 374.066L619.699 374.121L620.409 372.473L621.87 371.417L624.07 366.38L625.372 365.497L626.835 365.107L627.341 364.557L627.307 364.509L626.835 365.02ZM281.845 366.858L306.68 366.931L281.845 366.858ZM643.508 353.572L644.462 355.077L645.229 358.276L647.776 361.88L653.827 364.571L656.431 363.818L659.485 364.079L659.963 363.776L661.048 361.677L662.698 361.141L663.668 359.883L665.362 358.594L668.56 357.508L670.484 357.754L672.627 358.522L674.58 357.914L678.879 354.411L683.149 347.103L684.191 345.858L684.318 345.371L684.22 345.728L683.178 346.973L678.908 354.281L674.609 357.784L672.656 358.391L670.513 357.625L668.574 357.378L665.391 358.464L663.697 359.752L662.727 361.011L661.077 361.562L659.991 363.659L659.514 363.963L656.46 363.703L653.856 364.456L647.805 361.778L645.244 358.175L644.477 354.976L643.521 353.47L641.438 351.532L638.066 351.561L633.811 351.256L633.882 348.478L634.259 346.944L635.923 343.398L636.111 334.193L637.212 332.167L637.255 331.428L634.751 327L634.071 322.384L633.058 319.575L634.114 316.681L636.574 314.654L638.311 311.065L638.5 308.88L638.992 307.678L639.426 307.375L641.51 303.409L642.422 300.051L642.987 295.753L644.404 291.44L647.487 288.618L651.424 287.518L655.202 287.07L656.75 286.534L659.21 284.32L660.73 284.261L662.67 283.509L666.808 279.79L670.195 278.472L673.104 275.577L674.016 274.319V273.653L676.766 270.874L677.489 270.556L678.625 270.231L678.619 270.223L677.403 270.57L676.679 270.888L673.929 273.653L673.944 274.319L673.031 275.577L670.123 278.472L666.737 279.79L662.582 283.495L660.657 284.261L659.138 284.319L656.678 286.534L655.114 287.055L651.337 287.518L647.401 288.618L644.318 291.44L642.899 295.739L642.335 300.037L641.423 303.395L639.324 307.36L638.891 307.678L638.399 308.865L638.21 311.065L636.473 314.654L634.014 316.681L632.957 319.575L633.984 322.383L634.665 326.985L637.168 331.414L637.11 332.167L636.011 334.193L635.822 343.398L634.158 346.944L633.782 348.478L633.711 351.205L633.811 351.256L638.066 351.561L637.067 352.501L636.748 353.92L635.938 354.6L630.41 357.523L625.763 361.315L625.489 361.851L625.51 361.881L625.749 361.416L630.395 357.624L635.923 354.701L636.734 354.02L637.053 352.602L638.051 351.661L641.423 351.632L643.508 353.572ZM817.269 353.267L817.139 354.541L818.22 358.453L818.311 358.276L817.211 354.295L817.315 353.156L817.269 353.267ZM280.586 347.306L280.977 349.853L283.148 353.832L280.977 349.853L280.586 347.306ZM812.218 335.206L812.521 338.303L814.374 341.921L817.254 344.744L818.34 346.408L818.226 350.815L818.282 350.678L818.398 346.176L817.312 344.512L814.432 341.69L812.594 338.071L812.287 335.086L812.218 335.206ZM822.595 337.623L827.92 338.998L835.765 343.441L837.646 346.987L840.194 349.085L842.596 350.228L843.262 350.272L842.596 350.228L840.194 349.085L837.646 346.987L835.765 343.441L827.92 338.998L822.595 337.623L813.245 333.31L812.956 332.253L810.901 331.125L810.25 331.255L808.773 330.835L807.992 328.809L806.226 324.41L806.211 323.049L803.157 321.804L802.434 321.268L801.813 320.124L801.71 320.27L802.361 321.471L803.085 322.007L806.125 323.251L806.154 324.611L807.919 329.025L808.701 331.052L810.177 331.472L810.828 331.342L812.898 332.485L813.165 333.447L813.245 333.31L822.595 337.623ZM625.865 348.347L628.379 348.051L628.354 348.043L625.797 348.33L625.865 348.347ZM281.526 338.26L282.076 341.054L281.526 338.26ZM162.053 340.33L166.771 336.625L162.053 340.33ZM82.5236 302.266L120.79 322.774L162.053 340.33L120.791 322.774L82.5246 302.266L64.9542 297.721L82.5236 302.266ZM279.876 328.476L279.964 328.983L281.092 329.663L281.469 330.545L281.685 332.558L282.886 335.843L281.685 332.558L281.469 330.545L281.092 329.663L279.964 328.983L279.876 328.476ZM182.706 330.922L186.049 334.294L186.584 334.266L186.049 334.294L182.706 330.922L181.664 330.386L182.706 330.922ZM699.372 330.386L701.848 331.819L701.659 332.76L701.934 333.18L703.121 333.585L707.463 333.425L709.59 332.499L712.051 332.355L713.237 330.589L715.423 328.65L719.374 328.158L720.489 327.637L721.661 326.218L724.801 326.233L725.699 327.145L726.147 327.217L728.84 324.598L728.837 324.538L726.234 327.058L725.772 326.985L724.874 326.088L721.747 326.074L720.561 327.492L719.447 328.013L715.495 328.505L713.31 330.444L712.123 332.21L709.663 332.355L707.521 333.281L703.179 333.44L701.992 333.035L701.717 332.63L701.905 331.675L699.431 330.256L697.505 329.691L695.494 330.488L692.411 331.11L691.948 330.85L691.354 329.504L689.183 328.838L686.362 328.867L681.673 331.255L681.665 331.366L686.318 328.997L689.141 328.968L691.311 329.634L691.904 330.98L692.368 331.24L695.435 330.618L697.448 329.837L699.372 330.386ZM171.793 333.165L172.01 332.355L171.793 333.165ZM751.157 331.631L753.805 332.529L755.194 332.21L756.381 330.878L760.535 329.605L760.57 329.443L756.454 330.705L755.267 332.037L753.878 332.37L751.24 331.48L751.157 331.631ZM189.132 331.313L190.695 330.589L191.809 330.777L190.695 330.589L189.132 331.313ZM198.887 327.116L199.812 330.386L200.796 331.154L200.797 331.154L199.813 330.386L198.887 327.116L198.337 326.985L195.674 328.462L198.337 326.985L198.887 327.116ZM177.51 330.865L177.51 330.865L171.778 330.488L177.51 330.865ZM743.226 315.479L747.307 317.491L747.944 318.229L747.856 322.18L748.898 324.988L752.097 326.304L752.482 329.156L752.546 329.04L752.17 326.146L748.971 324.829L747.929 322.022L748.016 318.07L747.379 317.332L743.312 315.335L740.128 314.915L738.449 315.291L737.147 314.713L737.083 314.876L738.362 315.45L740.042 315.06L743.226 315.479ZM844.101 327.665L844.102 327.665L839.557 327.246L844.101 327.665ZM384.139 326.942L385.318 326.698L385.312 326.696L384.134 326.94L384.139 326.942ZM547.552 319.633L546.061 322.412L544.315 324.836L544.354 324.8L546.105 322.369L547.585 319.611L547.552 319.633ZM762.445 323.006L761.722 324.264L761.71 324.317L762.373 323.164L763.458 322.932L764.588 323.7L765.499 323.772L768.958 322.296L770.551 320.502L770.583 320.389L769.046 322.122L765.586 323.613L764.659 323.527L763.545 322.759L762.445 323.006ZM205.848 322.716L205.081 323.931L205.848 322.716L208.381 320.892L209.047 320.921L210.262 321.717L212.852 321.862L212.852 321.862L210.263 321.717L209.047 320.921L208.381 320.892L205.848 322.716ZM611.292 322.876L611.291 322.875L611.133 322.854L611.292 322.876ZM728.767 320.979L728.773 321.109L731.574 320.573L732.718 320.835L734.238 319.879L736.409 316.536L736.422 316.504L734.325 319.72L732.805 320.69L731.662 320.429L728.767 320.979ZM784.271 311.615L785.472 313.699L787.44 314.871L790.856 316L795.183 316.579L797.47 318.244L798.251 320.632L798.816 321.023L799.438 320.805L799.473 320.596L798.874 320.806L798.309 320.429L797.528 318.041L795.241 316.377L790.914 315.798L787.498 314.684L785.544 313.511L784.343 311.427L782.187 310.617L781.333 310.776L777.671 312.889L775.283 313.526L775.219 313.697L777.598 313.062L781.26 310.949L782.115 310.805L784.271 311.615ZM279.949 316L281.975 317.404L282.844 319.199L281.975 317.404L279.949 316ZM802.579 318.084L802.604 318.869L802.665 318.779L802.636 317.882L801.985 317.419L800.538 317.434L799.916 318.07L799.887 318.243L800.48 317.636L801.928 317.622L802.579 318.084ZM227.238 312.281L226.066 313.945L223.085 315.697L222.926 318.317L223.085 315.697L226.066 313.945L227.238 312.281L227.759 310.805L227.238 312.281ZM551.091 318.028L551.098 318.027L551.565 317.484L551.091 318.028ZM770.941 317.143L770.521 317.505L770.537 317.591L770.854 317.317L774.096 316.666L774.161 316.494L770.941 317.143ZM556.207 308.489L553.747 313.178L553.486 314.611L552.144 316.809L552.155 316.797L553.515 314.568L553.776 313.135L556.217 308.482L556.207 308.489ZM372.923 316.261L372.99 316.322L372.908 316.247L372.223 315.753L372.923 316.261ZM267.257 312.078L268.241 316.247L267.257 312.078L266.359 311.789L267.257 312.078ZM279.485 314.437L280.006 314.987L279.949 316L280.007 314.987L279.485 314.437ZM264.94 311.977L264.941 311.977L264.732 311.882L264.94 311.977ZM747.885 307.215L745.789 308.433L747.885 307.216L748.975 306.901L747.885 307.215ZM568.639 269.875L563.704 271.525L560.129 274.101L559.854 274.608L560.476 277.778L560.564 281.642L558.71 284.681L556.669 287.112L556.453 287.938L556.699 289.211L557.552 290.601L559.97 293.119L561.056 293.582L561.272 294.016L560.317 299.863L557.77 307.316L557.572 307.465L557.814 307.288L560.361 299.834L561.316 293.987L561.099 293.553L560.028 293.09L557.611 290.572L556.743 289.197L556.511 287.924L556.713 287.099L558.754 284.652L560.621 281.613L560.535 277.749L559.912 274.593L560.187 274.087L563.762 271.51L568.698 269.861L572.043 268.241L568.639 269.875ZM255.055 300.21L255.707 300.92L256.865 303.684L258.789 305.522L262.466 306.941L258.789 305.522L256.865 303.684L255.707 300.92L255.055 300.21L251.944 298.575L236.328 298.662L251.944 298.575L255.055 300.21ZM231.595 305.102L228.006 305.87L231.595 305.102L231.972 304.784L231.595 305.102ZM832.523 299.256L833.029 302.498L834.404 303.858L836.721 305.001L839.109 303.785L841.048 303.554L843.624 301.34L844.202 300.645L843.624 301.34L841.047 303.554L839.109 303.785L836.721 305.001L834.404 303.858L833.029 302.497L832.523 299.256L832.523 299.256ZM231.841 303.091L231.972 304.784L231.841 303.091L231.841 303.091ZM609.815 299.588L612.912 297.649L619.042 296.299L619.005 296.274L612.824 297.634L609.776 299.535L609.815 299.588ZM832.61 298.112L832.87 298.546L832.61 298.112L830.96 297.648L830.323 298.069L828.138 298.431L830.323 298.069L830.96 297.649L832.61 298.112ZM753.313 292.309L755.657 294.595L756.077 295.377L755.657 294.595L753.313 292.309ZM776.166 284.435L780.29 287.185L782.939 288.386L783.605 289.82L785.066 291.367L787.034 292.062L788.164 292.887L789.075 295.26L791.463 295.189L793.692 291.874L795.241 290.673L797.543 289.964L798.121 290.094L800.147 292.859L801.58 293.336L803.766 292.872L805.112 291.817L805.662 291.932L806.573 293.727L805.662 291.932L805.112 291.817L803.766 292.872L801.58 293.336L800.147 292.859L798.121 290.094L797.543 289.964L797.296 289.602L797.542 289.964L795.241 290.672L793.692 291.874L791.463 295.189L789.075 295.26L788.164 292.887L787.034 292.062L785.066 291.367L783.605 289.82L782.939 288.386L780.29 287.185L776.166 284.435L771.708 283.827L769.841 283.972L766.743 285.13L764.385 285.404L764.385 285.405L766.744 285.13L769.841 283.972L771.708 283.827L776.166 284.435ZM806.501 294.711L807.615 295.189L811.422 293.785L813.781 293.452L815.981 291.078L819.889 288.357L821.408 287.909L823.55 286.649L824.896 284.464L828.109 282.641L830.251 282.047L835.316 284.826L836.039 286.838L836.04 286.837L835.316 284.826L830.251 282.047L828.108 282.641L824.896 284.464L823.55 286.649L821.408 287.909L819.889 288.357L815.981 291.078L813.781 293.452L811.422 293.784L807.615 295.189L806.501 294.711ZM356.482 290.007L354.745 292.641L353.5 293.567L354.745 292.641L356.482 290.007ZM831.003 289.95L831.061 290.63L831.003 289.95ZM799.018 287.981L797.296 289.602L799.018 287.981L801.348 282.93L799.018 287.981ZM752.459 286.128L752.546 287.503L753.415 289.139L752.546 287.503L752.459 286.128ZM356.872 288.546L356.872 288.545L356.38 287.33L356.872 288.546ZM599.583 288.068L600.774 287.973L600.77 287.966L599.579 288.061L599.583 288.068ZM356.467 286.23L356.38 287.33L356.467 286.23ZM763.097 285.058L755.962 284.768L763.097 285.058ZM755.064 281.873L756.048 282.858L755.064 281.873ZM596.138 282.525L596.708 282.157L596.659 282.149L596.107 282.504L596.138 282.525ZM798.062 279.804L799.858 281.092L798.063 279.804L798.092 277.402L798.062 279.804ZM798.396 272.538L796.818 273.45L796.572 274L796.398 275.346L796.572 274L796.819 273.45L798.396 272.538L799.351 270.643L798.396 272.538ZM694.944 270.671L691.427 271.916L690.611 271.975L691.5 271.916L695.031 270.671L696.154 270.617L696.145 270.614L694.944 270.671ZM846.257 267.979L846.489 270.034L847.17 271.395L846.489 270.034L846.258 267.979L846.952 267.125L846.257 267.979ZM697.172 271.019L700.473 270.599L702.223 268.703L702.947 266.59L703.121 264.839L703.541 264.203L704.105 261.018L703.917 259.788L703.671 259.064L701.341 257.748L698.765 254.809L698.026 251.481L697.867 248.427L698.114 244.838L704.048 238.426L704.351 237.63L704.496 234.113L703.7 229.8L701.413 225.748L703.063 221.594L703.468 219.466L702.918 217.628L701.139 216.413L700.632 213.634L701.746 212.115L702.673 211.868L703.859 209.003L706.595 206.325L707.868 203.676L707.811 201.086L712.013 196.178L711.949 196.166L707.723 201.086L707.782 203.691L706.508 206.34L703.772 209.017L702.585 211.883L701.66 212.129L700.545 213.649L701.066 216.427L702.846 217.628L703.396 219.481L702.991 221.594L701.341 225.747L703.627 229.814L704.423 234.128L704.264 237.644L703.96 238.44L698.026 244.838L697.781 248.427L697.955 251.481L698.692 254.809L701.268 257.762L703.598 259.079L703.845 259.802L704.033 261.018L703.468 264.203L703.049 264.839L702.875 266.59L702.151 268.703L700.4 270.599L697.151 271.01L697.172 271.019ZM679.038 270.643L680.66 270.266L682.096 269.404L682.034 269.412L680.572 270.281L679.034 270.637L679.038 270.643ZM801.305 262.74L800.089 264.404L798.598 268.747L800.089 264.404L801.305 262.74L801.421 261.959L801.305 262.74ZM827.559 260.902L826.922 262.292L826.372 264.81L825.779 265.36L824.548 265.722L824.244 266.17L824.129 268.659L824.244 266.17L824.548 265.722L825.779 265.36L826.372 264.81L826.922 262.292L827.559 260.902L831.886 256.256L827.559 260.902ZM575.803 261.452L573.618 263.391L572.388 265.229L572.605 267.415L572.258 268.137L572.315 268.109L572.663 267.386L572.445 265.201L573.69 263.362L575.85 261.446L575.803 261.452ZM848.415 267.589L847.647 265.375L846.605 264.245L847.647 265.375L848.415 267.589ZM812.188 263.522L810.51 265.157L812.189 263.522L816.864 261.12L812.188 263.522ZM803.288 254.881L802.072 256.155L800.031 259.412L799.539 262.263L800.465 262.509L799.54 262.263L800.032 259.412L802.072 256.155L803.288 254.881L804.026 254.78L805.155 255.519L806.646 255.142L807.471 253.55L809.584 251.364L811.61 247.833L809.584 251.364L807.471 253.55L806.646 255.142L805.155 255.519L804.026 254.78L803.288 254.881ZM852.149 262.089L852.293 260.642L852.149 262.089ZM577.901 256.894L577.539 257.559L577.96 259.295L577.688 261.213L577.743 261.206L578.018 259.267L577.598 257.53L577.953 256.877L577.901 256.894ZM818.05 260.092L816.864 261.12L818.051 260.092L818.195 258.587L818.05 260.092ZM581.1 247.168L580.68 247.573L580.81 249.614L582.273 251.553L580.941 255.533L580.039 256.209L580.073 256.199L580.999 255.504L582.345 251.524L580.869 249.585L580.739 247.559L581.146 247.165L581.1 247.168ZM579.016 239.902L580.492 242.305L581.057 242.753L582.316 242.956L584.14 244.649L584.082 245.561L583.546 246.531L582.56 247.038L582.562 247.038L583.605 246.502L584.14 245.547L584.183 244.62L582.36 242.927L581.1 242.724L580.536 242.276L579.059 239.873L577.193 239.7L574.486 240.062L571.172 238.889L571.939 237.963L575.731 235.285L578.509 234.534L578.481 234.532L575.645 235.3L571.852 237.977L571.091 238.897L571.128 238.904L574.443 240.076L577.149 239.729L579.016 239.902ZM746.815 240.292L746.974 240.843L746.815 240.292ZM585.876 236.906L587.191 236.187L587.165 236.183L585.833 236.904L585.876 236.906ZM745.179 228.931L746.627 231.84L747.495 236.168L746.627 231.84L745.179 228.931ZM595.067 221.999L595.072 221.996L591.709 221.666L591.704 221.67L595.067 221.999ZM743.862 215.646L745.83 217.947L743.862 215.646ZM713.209 196.382L713.403 196.355L713.208 196.382L713.209 196.382ZM392.374 168.435L393.605 167.552L395.563 167.056L395.558 167.045L393.546 167.552L392.338 168.42L392.374 168.435ZM625.865 159.042L627.259 158.817L627.254 158.811L625.861 159.036L625.865 159.042ZM280.311 150.489L279.674 147.435L280.311 150.489ZM280.586 139.012L281.121 141.617L280.586 139.012ZM281.772 134.714L280.586 139.012L281.773 134.714L283.248 132.89L281.772 134.714ZM259.701 135.798L259.904 134.149L262.567 134.626L264.216 132.717L264.304 131.877L264.216 132.717L262.567 134.626L259.904 134.149L259.701 135.798ZM307.448 129.822L307.781 130.878L309.43 132.918L307.781 130.878L307.448 129.822ZM483.351 132.108L484.687 132.376L484.682 132.369L483.348 132.103L483.351 132.108ZM476.316 122.73L477.503 123.005L478.611 122.494L478.589 122.469L477.46 122.99L476.314 122.725L476.316 122.73ZM315.147 114.307L315.104 113.323L315.147 114.307ZM259.195 111.355L258.37 112.743L259.195 111.355L260.31 106.955L259.195 111.355ZM258.833 102.367L261.177 100.254L258.833 102.367ZM467.994 100.659L471.672 101.703L471.671 101.7L467.992 100.656L467.994 100.659ZM463.536 90.253L464.484 90.2108L464.478 90.1953L463.519 90.2369L463.536 90.253ZM454.375 87.025L455.591 87.4157L457.516 87.2129L458.066 86.6055L459.403 86.4062L459.384 86.3887L458.023 86.5916L457.473 87.199L455.549 87.4018L454.375 87.0247L454.375 87.025ZM449.845 84.2175L451.541 84.3888L451.524 84.3766L449.841 84.2065L449.845 84.2175ZM254.245 80.238L253.217 82.4082L254.245 80.238L255.562 75.4323L254.245 80.238ZM443.502 78.9779L443.464 78.9635L438.557 78.4287L436.994 78.8482L435.336 78.82L435.344 78.8333L437.037 78.8621L438.6 78.4426L443.502 78.9779ZM248.788 73.2472L250.063 72.9431L250.062 72.943L248.788 73.2472ZM574.617 768.495L574.979 765.962L576.078 762.488L575.499 760.781L575.731 759.305L577.757 758.204L578.075 758.292L579.031 759.652L578.249 763.357L577.062 764.602L576.208 766.367L576.498 768.06L574.833 769.175L574.617 768.495ZM571.476 730.981L575.166 727.45L575.528 727.507L576.469 729.027L575.224 730.938L574.182 733.905L571.476 730.981ZM647.444 671.917L645.765 672.178L645.056 671.628L645.201 670.499L646.576 669.558L648.153 666.881L649.195 667.243L650.15 668.183L650.338 672.395L649.673 672.859L647.444 671.917ZM669.472 653.161L672.526 650.917L675.218 652.278L675.84 653.291L672.28 654.015L671.686 653.508H671.005L670.442 654.564L669.472 653.161ZM795.356 414.112L796.428 413.518L797.962 412.013L798.194 411.087L797.658 410.031L798.758 410.234L799.944 411.753L799.873 412.52L795.689 415.849L795.356 414.112ZM664.349 186.092L665.115 183.878L664.522 182.329L664.711 181.374L666.027 179.579L666.823 179.304L666.896 182.705L666.578 184.645L665.419 185.513L664.435 187.235L664.349 186.092ZM522.182 163.282L520.907 162.53L519.909 163.196L518.824 162.79L516.392 160.272V159.389L518.245 159.375L522.674 161.285L523.122 163.442L522.182 163.282ZM529.158 158.883L527.985 158.001L527.638 155.322L527.305 154.729L525.698 153.253L524.164 150.937L523.86 148.361L524.612 144.381L525.51 143.831L528.057 144.352L529.403 143.266L529.52 142.456L527.638 143.079L525.872 142.891L524.511 141.863L524.251 140.344L524.743 132.991L525.799 131.892L526.306 132.976L528.853 133.845L529.65 133.758L528.984 133.15L527.146 132.832L525.843 129.705L526.364 127.275L527.653 124.424L529.577 122.498L530.966 121.674L532.906 120.964L534.816 120.776L539.824 121.529L550.258 124.09L555.614 123.424L555.773 122.99L557.423 122.093L560.549 121.557L564.732 121.977L568.784 123.164L578.163 124.394L579.074 125.075L579.002 126.854L577.989 127.926L577.005 130.096L576.484 133.931L575.239 138.707L573.372 139.692L572.865 140.691L573.198 142.412L570.333 146.146L568.321 151.213L567.612 151.864L561.07 154.7L556.163 155.453L553.24 155.004L552.299 156.64L549.636 158.361L548.594 157.479L547.711 155.265L547.378 155.67L547.987 157.45L547.495 158.623L546.467 159.215L541.011 156.842L539.853 157.884L533.788 159.708L529.158 158.883ZM564.269 158.361L563.777 156.828L565.282 154.338L566.831 153.861L567.105 154.005L567.076 155.077L566.005 158.319L565.484 158.868L564.269 158.361ZM659.964 155.569L660.05 154.801L661.584 153.513L662.279 153.614L663.003 154.845L662.8 155.728L662.221 155.481L660.383 156.003L659.964 155.569ZM492.57 153.934L492.28 153.499L493.149 152.067L496.565 150.793L497.693 151.343L498.953 152.588L498.532 153.094L497.042 153.775L493.366 154.367L492.512 155.424L492.57 153.934ZM486.809 152.471L486.708 151.965L487.33 151.386L492.483 149.07L493.264 150.083L493.25 150.373L491.224 151.429L487.606 152.747L486.809 152.471ZM498.2 150.88L499.792 147.623L499.662 145.032L500.023 144.729L503.396 144.034L504.698 142.789L504.916 142.066L504.625 138.678L505.87 134.945L507.694 132.788L511.009 130.661L515.162 130.371L516.204 133.787L514.612 136.957L513.382 141.357L511.79 142.326L509.85 145.264L508.721 146.307L501.572 151.096L499.285 151.617L498.2 150.88ZM654.681 149.287L654.564 148.419L655.723 146.798L656.938 146.755L657.923 147.362L658.067 147.854L657.792 148.375L655.317 149.953L654.681 149.287ZM639.586 148.969L640.961 143.787L641.394 143.918L641.438 144.251L640.844 148.68L639.889 149.041L639.586 148.969ZM578.061 145.554L576.874 144.41L578.134 142.601L580.073 142.586L580.348 144.309L580.203 145.162L579.552 145.828L578.061 145.554ZM510.632 145.698L510.647 145.192L511.428 143.831L514.019 141.487L514.626 139.692L514.699 137.811L515.046 137.376L515.509 138.013V140.199L514.222 144.149L513.324 145.091L510.892 145.742L510.632 145.698ZM515.379 142.717L515.77 141.516L516.451 140.604L518.954 138.186L520.256 137.97L521.299 138.013L520.719 138.665L519.359 139.113L519.2 140.734L518.057 141.761L515.61 142.977L515.379 142.717ZM620.192 140.647L620.466 139.547L621.943 138.23L622.305 138.447L622.638 140.98L620.742 141.414L620.192 140.647ZM516.277 139.475L516.551 138.129L518.056 134.062L521.805 131.616L522.847 131.211L523.846 131.413L523.614 134.004L521.357 134.641L519.011 137.811L516.479 140.068L516.277 139.475ZM520.459 137.29L520.358 136.957L521.487 134.785L523.209 134.814L523.036 136.769L521.11 137.463L520.459 137.29ZM522.398 127.13L523.672 126.825L524.7 127.101L525.091 128.359L524.251 129.387L520.011 131.413L522.398 127.13ZM517.897 129.807L518.259 129.083L521.849 126.971L520.546 129.864L519.373 130.777L518.013 130.907L517.897 129.807ZM516.248 130.4L516.711 127.448L518.636 124.828L518.969 124.886L520.836 126.16L520.821 126.521L518.578 127.448L517.029 130.69L516.248 130.4ZM510.444 129.112L510.618 128.229L511.413 127.708L513.136 125.234L514.236 123.005L515.292 122.05L517.391 121.268L517.102 123.424L516.522 124.872L514.033 127.275L510.835 129.387L510.444 129.112ZM521.82 126.521L521.849 126.247L525.264 123.583L525.322 124.973L524.989 125.885L524.627 126.377L523.107 126.623L521.82 126.521ZM522.138 124.452L521.255 124.51L519.026 123.511L519.331 121.833L520.256 120.501L523.036 119.922L526.451 118.62L528.361 118.735L529.52 119.719L529.65 119.907L526.856 122.237L525.307 122.73L522.862 124.828L522.138 124.452ZM545.859 120.703L545.569 119.937L547.436 118.475H547.437L550.128 116.738L552.994 116.782L555.382 117.678L556.15 119.112L556.221 120.009L554.948 121.123L550.823 121.529L549.13 121.992L545.859 120.703ZM540.504 118.475L539.014 118.113L535.467 118.229L534.324 117.997L533.905 117.621L533.354 116.043L533.369 114.249L535.554 113.641L538.29 113.699L541.459 111.832L548.421 110.963L549.536 111.34L550.519 112.324L550.258 113.8L546.554 115.811L543.977 119.401L542.386 120.125L540.504 118.475ZM521.11 119.198L522.601 117.693L524.106 116.956L525.612 117.201L526.248 117.693L526.466 118.026L526.248 118.33L525.64 118.475L522.224 119.488L521.371 119.503L521.11 119.198ZM530.04 118.996L528.825 117.969L527.435 115.595L527.362 115.045L527.695 114.625L528.867 113.785L531.546 115.001L531.965 115.623L532.312 118.649L530.908 119.213L530.04 118.996ZM530.546 114.191L530.112 113.496L531.387 112.107L532.413 106.39L533.702 104.609L534.121 104.798L534.223 105.261L534.194 108.85L535.062 111.556L534.6 112.83L533.108 113.409L532.269 114.639L530.546 114.191ZM535.308 110.37L535.062 107.968L535.28 107.099L536.973 105.203L540.519 103.872L540.881 104.046L541.647 105.03L541.706 106.317L538.883 109.197L536.495 110.804L535.308 110.37ZM536.119 101.411L536.003 100.384L537.61 98.7916L538.883 98.5749L540.692 98.9219L541.358 98.7628L541.995 97.8363L542.067 98.6902L540.663 100.775L539.23 101.499L536.697 101.773L536.119 101.411ZM540.547 97.2865V96.4763L541.589 94.9712L543.399 94.826L543.659 95.333L543.514 96.0707L541.676 97.6195L540.547 97.2865ZM532.442 75.8091L530.851 73.117L530.952 71.8435L531.285 71.25L533.687 70.5988L534.309 71.1635L535.511 74.4481L534.078 76.0407L533.093 76.2863L532.442 75.8091ZM530.171 70.237L530.546 69.036L531.82 68.7895L533.065 69.2528L533.08 70.3095L531.27 70.9607L530.171 70.237Z" fill="black"/>
</g>
<defs>
<clipPath id="clip0_2_5">
<rect width="885.74" height="924.136" fill="white"/>
</clipPath>
</defs>
</svg>
