<svg xmlns="http://www.w3.org/2000/svg" width="45.154" height="45.154" viewBox="0 0 45.154 45.154"><g transform="translate(2 2)"><path d="M44.154,23.577A20.577,20.577,0,1,1,23.577,3,20.577,20.577,0,0,1,44.154,23.577Z" transform="translate(-3 -3)" fill="none" stroke="#fff" stroke-linecap="round" stroke-linejoin="round" stroke-width="4"/><path d="M14.436,10.379,13.843,4.65h2.044A1.163,1.163,0,0,0,17.05,3.488V1.163A1.163,1.163,0,0,0,15.888,0H2.713A1.163,1.163,0,0,0,1.55,1.163V3.488A1.163,1.163,0,0,0,2.713,4.65H4.757l-.593,5.729C1.815,11.471,0,13.43,0,15.888A1.163,1.163,0,0,0,1.163,17.05H7.75v5.038a.387.387,0,0,0,.041.173l1.163,2.325a.388.388,0,0,0,.693,0l1.163-2.325a.388.388,0,0,0,.041-.173V17.05h6.588A1.163,1.163,0,0,0,18.6,15.888c0-2.479-1.84-4.428-4.164-5.509Z" transform="translate(11.538 9.872)" fill="#fff"/></g></svg>